<svg version="1.1" xmlns="http://www.w3.org/2000/svg" xmlns:xlink="http://www.w3.org/1999/xlink" width="1560" height="804"><defs/><g><path fill="none" stroke="#02063B" paint-order="fill stroke markers" d=" M 1233 383.6988717036562 L 1234 385.3459962168815 L 1235 386.99481993041076 L 1236 388.6451746155237 L 1237 390.2968918872945 L 1238 391.949803221774 L 1239 393.603739973183 L 1240 395.25853339111967 L 1241 396.9140146377766 L 1242 398.57001480516817 L 1243 400.226364932363 L 1244 401.8828960227236 L 1245 403.53943906114887 L 1246 405.1958250313186 L 1247 406.85188493293805 L 1248 408.5074497989818 L 1249 410.162350712932 L 1250 411.81641882601366 L 1251 413.4694853744221 L 1252 415.1213816965419 L 1253 416.77193925015496 L 1254 418.4209896296379 L 1255 420.06836458314297 L 1256 421.7138960297653 L 1257 423.3574160766925 L 1258 424.9987570363342 L 1259 426.63775144343134 L 1260 428.27423207214224 L 1261 429.9080319531057 L 1262 431.53898439047515 L 1263 433.16692297892763 L 1264 434.79168162064184 L 1265 436.4130945422449 L 1266 438.03099631172597 L 1267 439.6452218553163 L 1268 441.2556064743299 L 1269 442.8619858619688 L 1270 444.46419612008697 L 1271 446.0620737759127 L 1272 447.6554557987275 L 1273 449.24417961650084 L 1274 450.82808313247625 L 1275 452.4070047417103 L 1276 453.98078334756144 L 1277 455.54925837812635 L 1278 457.1122698026227 L 1279 458.6696581477181 L 1280 460.2212645137999 L 1281 461.76693059118793 L 1282 463.3064986762871 L 1283 464.8398116876778 L 1284 466.3667131821422 L 1285 467.88704737062744 L 1286 469.4006591341392 L 1287 470.9073940395691 L 1288 472.40709835545164 L 1289 473.8996190676489 L 1290 475.384803894963 L 1291 476.86250130467243 L 1292 478.3325605279945 L 1293 479.79483157546605 L 1294 481.2491652522484 L 1295 482.69541317334915 L 1296 484.1334277787617 L 1297 485.5630623485206 L 1298 486.98417101767234 L 1299 488.3966087911564 L 1300 489.8002315585998 L 1301 491.1948961090209 L 1302 492.5804601454404 L 1303 493.95678229940023 L 1304 495.32372214538805 L 1305 496.6811402151632 L 1306 498.02889801198785 L 1307 499.3668580247572 L 1308 500.6948837420299 L 1309 502.01283966595594 L 1310 503.32059132610243 L 1311 504.6180052931719 L 1312 505.9049491926173 L 1313 507.18129171814786 L 1314 508.44690264512576 L 1315 509.70165284385337 L 1316 510.9454142927484 L 1317 512.1780600914054 L 1318 513.3994644735435 L 1319 514.6095028198383 L 1320 515.8080516706373 L 1321 516.994988738555 L 1322 518.1701929209513 L 1323 519.3335443122875 L 1324 520.4849242163588 L 1325 521.624215158406 L 1326 522.7513008971011 L 1327 523.8660664364077 L 1328 524.9683980373128 L 1329 526.0581832294336 L 1330 527.1353108224905 L 1331 528.1996709176535 L 1332 529.2511549187543 L 1333 530.2896555433664 L 1334 531.3150668337512 L 1335 532.3272841676693 L 1336 533.326204269054 L 1337 534.3117252185494 L 1338 535.2837464639088 L 1339 536.242168830254 L 1340 537.186894530194 L 1341 538.1178271738028 L 1342 539.0348717784532 L 1343 539.9379347785084 L 1344 540.8269240348678 L 1345 541.7017488443691 L 1346 542.5623199490411 L 1347 543.4085495452124 L 1348 544.2403512924684 L 1349 545.0576403224616 L 1350 545.8603332475701 L 1351 546.6483481694061 L 1352 547.4216046871713 L 1353 548.1800239058612 L 1354 548.9235284443133 L 1355 549.6520424431035 L 1356 550.3654915722855 L 1357 551.0638030389745 L 1358 551.7469055947744 L 1359 552.4147295430473 L 1360 553.0672067460248 L 1361 553.7042706317596 L 1362 554.325856200918 L 1363 554.9319000334118 L 1364 555.5223402948691 L 1365 556.0971167429428 L 1366 556.6561707334581 L 1367 557.1994452263948 L 1368 557.7268847917074 L 1369 558.2384356149812 L 1370 558.7340455029222 L 1371 559.2136638886825 L 1372 559.6772418370205 L 1373 560.1247320492921 L 1374 560.556088868278 L 1375 560.9712682828415 L 1376 561.370227932419 L 1377 561.7529271113416 L 1378 562.1193267729894 L 1379 562.4693895337743 L 1380 562.8030796769547 L 1381 563.1203631562795 L 1382 563.4212075994622 L 1383 563.7055823114831 L 1384 563.9734582777223 L 1385 564.2248081669184 L 1386 564.4596063339587 L 1387 564.6778288224948 L 1388 564.8794533673869 L 1389 565.0644593969762 L 1390 565.2328280351828 L 1391 565.3845421034325 L 1392 565.5195861224092 L 1393 565.6379463136341 L 1394 565.7396106008714 L 1395 565.824568611361 L 1396 565.8928116768765 L 1397 565.9443328346092 L 1398 565.9791268278796 L 1399 565.9971901066723 L 1400 565.9985208279995 L 1401 565.9831188560883 L 1402 565.9509857623947 L 1403 565.9021248254435 L 1404 565.8365410304933 L 1405 565.7542410690287 L 1406 565.6552333380764 L 1407 565.5395279393496 L 1408 565.4071366782164 L 1409 565.2580730624962 L 1410 565.0923523010806 L 1411 564.9099913023824 L 1412 564.7110086726099 L 1413 564.4954247138687 L 1414 564.2632614220905 L 1415 564.0145424847886 L 1416 563.7492932786412 L 1417 563.467540866902 L 1418 563.1693139966394 L 1419 562.8546430958029 L 1420 562.5235602701191 L 1421 562.1760992998157 L 1422 561.8122956361747 L 1423 561.4321863979156 L 1424 561.0358103674083 L 1425 560.6232079867159 L 1426 560.1944213534683 L 1427 559.7494942165677 L 1428 559.2884719717239 L 1429 558.8114016568234 L 1430 558.3183319471298 L 1431 557.8093131503174 L 1432 557.284397201339 L 1433 556.7436376571259 L 1434 556.1870896911244 L 1435 555.6148100876659 L 1436 555.0268572361739 L 1437 554.4232911252059 L 1438 553.804173336333 L 1439 553.169567037857 L 1440 552.519536978365 L 1441 551.8541494801232 L 1442 551.1734724323106 L 1443 550.4775752840915 L 1444 549.7665290375301 L 1445 549.0404062403462 L 1446 548.2992809785128 L 1447 547.5432288686978 L 1448 546.7723270505483 L 1449 545.9866541788201 L 1450 545.1862904153534 L 1451 544.3713174208925 L 1452 543.5418183467552 L 1453 542.6978778263484 L 1454 541.8395819665333 L 1455 540.9670183388394 L 1456 540.08027597053 L 1457 539.1794453355192 L 1458 538.2646183451399 L 1459 537.3358883387667 L 1460 536.3933500742929 L 1461 535.4370997184617 L 1462 534.4672348370547 L 1463 533.483854384937 L 1464 532.4870586959619 L 1465 531.4769494727319 L 1466 530.4536297762244 L 1467 529.4172040152745 L 1468 528.3677779359235 L 1469 527.3054586106289 L 1470 526.2303544273403 L 1471 525.1425750784401 L 1472 524.0422315495523 L 1473 522.9294361082183 L 1474 521.8043022924425 L 1475 520.6669448991076 L 1476 519.5174799722628 L 1477 518.3560247912826 L 1478 517.1826978589021 L 1479 515.9976188891258 L 1480 514.8009087950127 L 1481 513.5926896763403 L 1482 512.373084807147 L 1483 511.1422186231531 L 1484 509.9002167090661 L 1485 508.64720578576714 L 1486 507.38331369738125 L 1487 506.1086693982336 L 1488 504.8234029396927 L 1489 503.5276454569011 L 1490 502.2215291553951 L 1491 500.90518729761715 L 1492 499.57875418931826 L 1493 498.242365165855 L 1494 496.8961565783815 L 1495 495.5402657799376 L 1496 494.17483111143395 L 1497 492.79999188753857 L 1498 491.4158883824616 L 1499 490.0226618156437 L 1500 488.62045433734704 L 1501 487.2094090141526 L 1502 485.7896698143615 L 1503 484.36138159330807 L 1504 482.924690078579 L 1505 481.47974185514505 L 1506 480.02668435040533 L 1507 478.56566581914524 L 1508 477.0968353284095 L 1509 475.62034274229393 L 1510 474.1363387066543 L 1511 472.6449746337362 L 1512 471.1464026867261 L 1513 469.6407757642272 L 1514 468.12824748465755 L 1515 466.6089721705782 L 1516 465.08310483294696 L 1517 463.55080115530257 L 1518 462.0122174778807 L 1519 460.4675107816624 L 1520 458.9168386723578 L 1521 457.3603593643246 L 1522 455.798231664427 L 1523 454.23061495583187 L 1524 452.657669181747 L 1525 451.07955482910234 L 1526 449.49643291217575 L 1527 447.90846495616375 L 1528 446.3158129807028 L 1529 444.71863948333737 L 1530 443.1171074229409 L 1531 441.5113802030887 L 1532 439.9016216553869 L 1533 438.28799602275507 L 1534 436.6706679426705 L 1535 435.0498024303693 L 1536 433.42556486201016 L 1537 431.79812095780096 L 1538 430.167636765091 L 1539 428.5342786414278" stroke-linecap="round" stroke-linejoin="round" stroke-miterlimit="10" stroke-width="11"/></g></svg>