<svg version="1.1" xmlns="http://www.w3.org/2000/svg" xmlns:xlink="http://www.w3.org/1999/xlink" width="1560" height="804"><defs/><g><path fill="none" stroke="#3D019F" paint-order="fill stroke markers" d=" M 20 429.0473138781591 L 21 430.3854773340934 L 22 431.72156720506644 L 23 433.0554858884967 L 24 434.3871359404101 L 25 435.71642008255793 L 26 437.04324120952344 L 27 438.3675023958154 L 28 439.68910690294854 L 29 441.00795818651045 L 30 442.3239599032142 L 31 443.6370159179362 L 32 444.9470303107393 L 33 446.2539073838794 L 34 447.5575516687966 L 35 448.8578679330889 L 36 450.1547611874696 L 37 451.4481366927057 L 38 452.737899966539 L 39 454.0239567905882 L 40 455.3062132172315 L 41 456.58457557646955 L 42 457.85895048276814 L 43 459.1292448418803 L 44 460.39536585764654 L 45 461.657221038774 L 46 462.9147182055929 L 47 464.1677654967905 L 48 465.41627137612124 L 49 466.6601446390941 L 50 467.89929441963477 L 51 469.13363019672363 L 52 470.36306180100854 L 53 471.58749942139144 L 54 472.8068536115895 L 55 474.02103529666897 L 56 475.2299557795524 L 57 476.433526747498 L 58 477.63166027855067 L 59 478.8242688479653 L 60 480.0112653346001 L 61 481.1925630272812 L 62 482.36807563113655 L 63 483.53771727390034 L 64 484.7014025121857 L 65 485.8590463377266 L 66 487.01056418358763 L 67 488.15587193034185 L 68 489.29488591221565 L 69 490.4275229232007 L 70 491.5537002231322 L 71 492.67333554373306 L 72 493.7863470946239 L 73 494.8926535692977 L 74 495.99217415105915 L 75 497.0848285189289 L 76 498.17053685351044 L 77 499.24921984282173 L 78 500.3207986880882 L 79 501.3851951094997 L 80 502.44233135192866 L 81 503.49213019061017 L 82 504.53451493678324 L 83 505.56940944329324 L 84 506.59673811015426 L 85 507.61642589007204 L 86 508.6283982939258 L 87 509.6325813962102 L 88 510.62890184043533 L 89 511.6172868444859 L 90 512.5976642059373 L 91 513.5699623073309 L 92 514.5341101214052 L 93 515.4900372162846 L 94 516.4376737606245 L 95 517.3769505287127 L 96 518.3077989055262 L 97 519.2301508917434 L 98 520.1439391087123 L 99 521.0490968033716 L 100 521.9455578531276 L 101 522.8332567706847 L 102 523.7121287088286 L 103 524.5821094651641 L 104 525.443135486805 L 105 526.2951438750166 L 106 527.1380723898103 L 107 527.971859454491 L 108 528.7964441601541 L 109 529.6117662701366 L 110 530.4177662244158 L 111 531.2143851439615 L 112 532.0015648350361 L 113 532.7792477934469 L 114 533.5473772087454 L 115 534.3058969683786 L 116 535.0547516617878 L 117 535.7938865844555 L 118 536.523247741903 L 119 537.2427818536336 L 120 537.9524363570254 L 121 538.6521594111707 L 122 539.3418999006636 L 123 540.0216074393335 L 124 540.6912323739256 L 125 541.3507257877288 L 126 542.0000395041492 L 127 542.6391260902283 L 128 543.2679388601093 L 129 543.886431878447 L 130 544.4945599637631 L 131 545.0922786917474 L 132 545.6795443985029 L 133 546.2563141837348 L 134 546.8225459138854 L 135 547.3781982252111 L 136 547.9232305268049 L 137 548.4576030035608 L 138 548.981276619083 L 139 549.4942131185372 L 140 549.996375031445 L 141 550.4877256744215 L 142 550.968229153855 L 143 551.4378503685288 L 144 551.8965550121857 L 145 552.3443095760338 L 146 552.7810813511945 L 147 553.2068384310921 L 148 553.6215497137845 L 149 554.0251849042347 L 150 554.4177145165245 L 151 554.7991098760086 L 152 555.1693431214087 L 153 555.528387206849 L 154 555.8762159038324 L 155 556.2128038031558 L 156 556.5381263167667 L 157 556.8521596795595 L 158 557.154880951111 L 159 557.4462680173566 L 160 557.726299592206 L 161 557.9949552190978 L 162 558.2522152724937 L 163 558.4980609593127 L 164 558.7324743203035 L 165 558.9554382313567 L 166 559.1669364047556 L 167 559.366953390366 L 168 559.5554745767652 L 169 559.7324861923087 L 170 559.897975306137 L 171 560.0519298291196 L 172 560.1943385147384 L 173 560.3251909599094 L 174 560.4444776057421 L 175 560.5521897382387 L 176 560.6483194889297 L 177 560.7328598354494 L 178 560.8058046020485 L 179 560.8671484600452 L 180 560.916886928215 L 181 560.9550163731177 L 182 560.9815340093622 L 183 560.9964378998114 L 184 560.9997269557224 L 185 560.9914009368267 L 186 560.9714604513474 L 187 560.9399069559554 L 188 560.896742755662 L 189 560.8419710036515 L 190 560.7755957010502 L 191 560.6976216966343 L 192 560.608054686476 L 193 560.5069012135267 L 194 560.3941686671399 L 195 560.2698652825306 L 196 560.1340001401743 L 197 559.9865831651433 L 198 559.8276251263818 L 199 559.6571376359193 L 200 559.4751331480222 L 201 559.2816249582839 L 202 559.0766272026541 L 203 558.8601548564052 L 204 558.6322237330394 L 205 558.3928504831325 L 206 558.1420525931186 L 207 557.8798483840117 L 208 557.606257010068 L 209 557.3212984573867 L 210 557.0249935424492 L 211 556.7173639105994 L 212 556.3984320344618 L 213 556.0682212123007 L 214 555.726755566317 L 215 555.374060040887 L 216 555.01016040074 L 217 554.635083229076 L 218 554.2488559256238 L 219 553.8515067046396 L 220 553.4430645928459 L 221 553.0235594273104 L 222 552.5930218532676 L 223 552.1514833218794 L 224 551.6989760879371 L 225 551.2355332075065 L 226 550.7611885355118 L 227 550.2759767232629 L 228 549.7799332159248 L 229 549.273094249927 L 230 548.7554968503175 L 231 548.2271788280575 L 232 547.6881787772597 L 233 547.1385360723683 L 234 546.5782908652834 L 235 546.0074840824274 L 236 545.4261574217554 L 237 544.8343533497092 L 238 544.2321150981152 L 239 543.6194866610257 L 240 542.9965127915059 L 241 542.3632389983642 L 242 541.7197115428276 L 243 541.0659774351626 L 244 540.402084431241 L 245 539.7280810290509 L 246 539.0440164651548 L 247 538.3499407110917 L 248 537.6459044697272 L 249 536.9319591715498 L 250 536.2081569709135 L 251 535.4745507422281 L 252 534.7311940760962 L 253 533.9781412753994 L 254 533.2154473513299 L 255 532.4431680193736 L 256 531.6613596952385 L 257 530.8700794907347 L 258 530.0693852096014 L 259 529.2593353432846 L 260 528.4399890666648 L 261 527.6114062337333 L 262 526.7736473732203 L 263 525.9267736841734 L 264 525.0708470314866 L 265 524.2059299413809 L 266 523.3320855968373 L 267 522.4493778329806 L 268 521.5578711324168 L 269 520.6576306205218 L 270 519.7487220606846 L 271 518.831211849503 L 272 517.9051670119331 L 273 516.9706551963936 L 274 516.0277446698232 L 275 515.0765043126943 L 276 514.1170036139811 L 277 513.149312666083 L 278 512.173502159705 L 279 511.1896433786926 L 280 510.19780819482577 L 281 509.19806906256747 L 282 508.19049901377156 L 283 507.17517165234733 L 284 506.15216114888295 L 285 505.12154223522697 L 286 504.0833901990293 L 287 503.03778087824134 L 288 501.9847906555759 L 289 500.9244964529275 L 290 499.8569757257527 L 291 498.78230645741263 L 292 497.70056715347573 L 293 496.61183683598284 L 294 495.51619503767495 L 295 494.4137217961828 L 296 493.3044976481805 L 297 492.18860362350176 L 298 491.06612123922105 L 299 489.9371324936984 L 300 488.8017198605895 L 301 487.659966282821 L 302 486.51195516653104 L 303 485.3577703749769 L 304 484.19749622240835 L 305 483.0312174679085 L 306 481.85901930920227 L 307 480.68098737643214 L 308 479.49720772590337 L 309 478.30776683379713 L 310 477.1127515898534 L 311 475.9122492910238 L 312 474.7063476350941 L 313 473.49513471427815 L 314 472.27869900878244 L 315 471.0571293803427 L 316 469.8305150657325 L 317 468.5989456702442 L 318 467.3625111611433 L 319 466.1213018610963 L 320 464.87540844157263 L 321 463.62492191622084 L 322 462.36993363422005 L 323 461.1105352736068 L 324 459.8468188345778 L 325 458.57887663276944 L 326 457.3068012925139 L 327 456.03068574007295 L 328 454.7506231968494 L 329 453.4667071725774 L 330 452.1790314584913 L 331 450.8876901204745 L 332 449.5927774921872 L 333 448.2943881681759 L 334 446.99261699696274 L 335 445.68755907411685 L 336 444.37930973530763 L 337 443.0679645493404 L 338 441.75361931117465 L 339 440.43637003492677 L 340 439.11631294685554 L 341 437.79354447833305 L 342 436.4681612588001 L 343 435.14026010870754 L 344 433.80993803244326 L 345 432.47729221124615 L 346 431.1424199961066 L 347 429.80541890065524 L 348 428.46638659403925 L 349 427.1254208937877 L 350 425.78261975866576 L 351 424.43808128151886 L 352 423.0919036821069 L 353 421.7441852999289 L 354 420.39502458703976 L 355 419.0445201008578 L 356 417.69277049696524 L 357 416.3398745219012 L 358 414.98593100594843 L 359 413.63103885591323 L 360 412.2752970479009 L 361 410.9188046200846 L 362 409.56166066547115 L 363 408.20396432466197 L 364 406.8458147786108 L 365 405.4873112413785 L 366 404.1285529528852 L 367 402.7696391716608 L 368 401.4106691675943 L 369 400.0517422146816 L 370 398.6929575837738 L 371 397.3344145353252 L 372 395.97621231214237 L 373 394.61845013213406 L 374 393.2612271810638 L 375 391.9046426053037 L 376 390.5487955045921 L 377 389.19378492479393 L 378 387.83970985066577 L 379 386.4866691986245 L 380 385.13476180952154 L 381 383.78408644142235 L 382 382.4347417623924 L 383 381.08682634328875 L 384 379.74043865056 L 385 378.3956770390528 L 386 377.0526397448272 L 387 375.7114248779802 L 388 374.3721304154788 L 389 373.0348541940029 L 390 371.69969390279783 L 391 370.36674707653845 L 392 369.0361110882039 L 393 367.7078831419645 L 394 366.382160266081 L 395 365.0590393058163 L 396 363.73861691636125 L 397 362.4209895557734 L 398 361.1062534779311 L 399 359.7945047255017 L 400 358.48583912292577 L 401 357.180352269417 L 402 355.8781395319786 L 403 354.5792960384364 L 404 353.28391667049027 L 405 351.99209605678226 L 406 350.70392856598426 L 407 349.4195082999042 L 408 348.1389290866118 L 409 346.8622844735846 L 410 345.5896677208737 L 411 344.3211717942915 L 412 343.05688935862025 L 413 341.7969127708429 L 414 340.54133407339623 L 415 339.2902449874472 L 416 338.04373690619246 L 417 336.8019008881822 L 418 335.5648276506681 L 419 334.3326075629765 L 420 333.1053306399064 L 421 331.8830865351545 L 422 330.6659645347653 L 423 329.45405355060905 L 424 328.24744211388634 L 425 327.04621836866124 L 426 325.85047006542186 L 427 324.6602845546704 L 428 323.47574878054195 L 429 322.2969492744532 L 430 321.1239721487812 L 431 319.9569030905729 L 432 318.79582735528544 L 433 317.6408297605584 L 434 316.49199468001757 L 435 315.3494060371115 L 436 314.2131472989807 L 437 313.0833014703604 L 438 311.9599510875171 L 439 310.84317821221885 L 440 309.7330644257409 L 441 308.6296908229061 L 442 307.5331380061606 L 443 306.4434860796859 L 444 305.3608146435473 L 445 304.28520278787886 L 446 303.2167290871059 L 447 302.1554715942048 L 448 301.1015078350019 L 449 300.0549148025091 L 450 299.0157689513003 L 451 297.984146191926 L 452 296.9601218853679 L 453 295.943770837534 L 454 294.9351672937934 L 455 293.93438493355336 L 456 292.94149686487634 L 457 291.9565756191397 L 458 290.9796931457371 L 459 290.0109208068226 L 460 289.0503293720975 L 461 288.09798901364053 L 462 287.153969300782 L 463 286.21833919502143 L 464 285.2911670449897 L 465 284.3725205814565 L 466 283.4624669123824 L 467 282.5610725180163 L 468 281.6684032460394 L 469 280.78452430675475 L 470 279.9095002683234 L 471 279.0433950520482 L 472 278.1862719277035 L 473 277.33819350891395 L 474 276.4992217485801 L 475 275.6694179343528 L 476 274.84884268415624 L 477 274.03755594175936 L 478 273.23561697239734 L 479 272.443084358442 L 480 271.6600159951223 L 481 270.8864690862951 L 482 270.12250014026625 L 483 269.3681649656628 L 484 268.623518667356 L 485 267.8886156424359 L 486 267.1635095762375 L 487 266.4482534384191 L 488 265.7428994790927 L 489 265.0474992250072 L 490 264.36210347578424 L 491 263.6867623002072 L 492 263.02152503256394 L 493 262.36644026904236 L 494 261.7215558641809 L 495 261.0869189273724 L 496 260.4625758194228 L 497 259.8485721491647 L 498 259.24495277012505 L 499 258.651761777249 L 500 258.0690425036788 L 501 257.4968375175878 L 502 256.9351886190711 L 503 256.3841368370921 L 504 255.84372242648516 L 505 255.31398486501496 L 506 254.79496285049262 L 507 254.28669429794886 L 508 253.78921633686411 L 509 253.3025653084564 L 510 252.82677676302632 L 511 252.36188545736033 L 512 251.90792535219146 L 513 251.46492960971884 L 514 251.0329305911846 L 515 250.61195985451042 L 516 250.20204815199182 L 517 249.80322542805186 L 518 249.41552081705362 L 519 249.0389626411719 L 520 248.67357840832426 L 521 248.31939481016155 L 522 247.97643772011807 L 523 247.64473219152146 L 524 247.3243024557626 L 525 247.01517192052535 L 526 246.7173631680768 L 527 246.43089795361738 L 528 246.15579720369186 L 529 245.89208101466042 L 530 245.63976865123084 L 531 245.39887854505085 L 532 245.1694282933621 L 533 244.95143465771437 L 534 244.74491356274115 L 535 244.54988009499647 L 536 244.3663485018527 L 537 244.19433219045982 L 538 244.03384372676598 L 539 243.88489483459955 L 540 243.7474963948127 L 541 243.62165844448657 L 542 243.50739017619793 L 543 243.4046999373479 L 544 243.31359522955188 L 545 243.23408270809165 L 546 243.1661681814294 L 547 243.10985661078305 L 548 243.06515210976414 L 549 243.03205794407714 L 550 243.01057653128103 L 551 243.00070944061252 L 552 243.00245739287158 L 553 243.01582026036874 L 554 243.04079706693432 L 555 243.07738598798989 L 556 243.12558435068144 L 557 243.1853886340747 L 558 243.2567944694123 L 559 243.33979664043304 L 560 243.43438908375265 L 561 243.54056488930712 L 562 243.65831630085714 L 563 243.78763471655495 L 564 243.92851068957248 L 565 244.0809339287917 L 566 244.2448932995562 L 567 244.42037682448466 L 568 244.60737168434588 L 569 244.80586421899505 L 570 245.01583992837186 L 571 245.23728347355956 L 572 245.47017867790555 L 573 245.71450852820314 L 574 245.9702551759343 L 575 246.23739993857365 L 576 246.515923300953 L 577 246.8058049166872 L 578 247.10702360966036 L 579 247.41955737557262 L 580 247.74338338354792 L 581 248.07847797780158 L 582 248.4248166793684 L 583 248.7823741878909 L 584 249.1511243834676 L 585 249.53104032856098 L 586 249.9220942699654 L 587 250.32425764083442 L 588 250.73750106276768 L 589 251.16179434795694 L 590 251.59710650139152 L 591 252.04340572312225 L 592 252.5006594105847 L 593 252.9688341609807 L 594 253.44789577371853 L 595 253.93780925291122 L 596 254.43853880993314 L 597 254.95004786603425 L 598 255.47229905501231 L 599 256.0052542259426 L 600 256.54887444596466 L 601 257.1031200031264 L 602 257.6679504092853 L 603 258.24332440306614 L 604 258.82919995287466 L 605 259.4255342599687 L 606 260.03228376158415 L 607 260.6494041341175 L 608 261.2768502963639 L 609 261.91457641280977 L 610 262.56253589698184 L 611 263.2206814148499 L 612 263.88896488828453 L 613 264.5673374985698 L 614 265.25574968996887 L 615 265.95415117334437 L 616 266.6624909298322 L 617 267.3807172145682 L 618 268.10877756046847 L 619 268.8466187820619 L 620 269.5941869793755 L 621 270.3514275418719 L 622 271.1182851524386 L 623 271.89470379142904 L 624 272.68062674075475 L 625 273.47599658802886 L 626 274.28075523075984 L 627 275.09484388059616 L 628 275.91820306762094 L 629 276.750772644696 L 630 277.59249179185554 L 631 278.4432990207497 L 632 279.3031321791359 L 633 280.17192845541905 L 634 281.0496243832402 L 635 281.93615584611285 L 636 282.8314580821065 L 637 283.73546568857773 L 638 284.6481126269479 L 639 285.5693322275273 L 640 286.4990571943854 L 641 287.437219610267 L 642 288.38375094155344 L 643 289.3385820432693 L 644 290.30164316413334 L 645 291.27286395165396 L 646 292.2521734572683 L 647 293.2395001415256 L 648 294.2347718793125 L 649 295.2379159651226 L 650 296.24885911836725 L 651 297.26752748872855 L 652 298.29384666155477 L 653 299.327741663296 L 654 300.36913696698105 L 655 301.41795649773496 L 656 302.4741236383361 L 657 303.5375612348133 L 658 304.6081916020821 L 659 305.68593652961954 L 660 306.77071728717726 L 661 307.8624546305334 L 662 308.96106880728126 L 663 310.0664795626549 L 664 311.17860614539234 L 665 312.2973673136342 L 666 313.4226813408587 L 667 314.55446602185157 L 668 315.6926386787116 L 669 316.8371161668899 L 670 317.9878148812642 L 671 319.1446507622457 L 672 320.30753930192014 L 673 321.476395550221 L 674 322.65113412113527 L 675 323.83166919894074 L 676 325.0179145444754 L 677 326.2097835014367 L 678 327.40718900271224 L 679 328.6100435767401 L 680 329.81825935389855 L 681 331.03174807292515 L 682 332.25042108736415 L 683 333.4741893720425 L 684 334.7029635295727 L 685 335.936653796884 L 686 337.17517005177916 L 687 338.4184218195183 L 688 339.666318279428 L 689 340.9187682715356 L 690 342.175680303229 L 691 343.43696255594006 L 692 344.7025228918519 L 693 345.97226886062987 L 694 347.24610770617494 L 695 348.5239463733998 L 696 349.8056915150264 L 697 351.09124949840526 L 698 352.3805264123554 L 699 353.6734280740244 L 700 354.96986003576893 L 701 356.26972759205387 L 702 357.5729357863708 L 703 358.8793894181747 L 704 360.1889930498385 L 705 361.5016510136245 L 706 362.81726741867345 L 707 364.1357461580093 L 708 365.4569909155597 L 709 366.78090517319225 L 710 368.10739221776527 L 711 369.43635514819243 L 712 370.7676968825218 L 713 372.1013201650277 L 714 373.43712757331514 L 715 374.77502152543684 L 716 376.1149042870216 L 717 377.456677978414 L 718 378.8002445818241 L 719 380.1455059484884 L 720 381.49236380583943 L 721 382.8407197646845 L 722 384.1904753263932 L 723 385.5415318900931 L 724 386.8937907598721 L 725 388.24715315198875 L 726 389.6015202020881 L 727 390.9567929724243 L 728 392.31287245908754 L 729 393.6696595992367 L 730 395.0270552783361 L 731 396.3849603373955 L 732 397.7432755802142 L 733 399.10190178062703 L 734 400.4607396897532 L 735 401.8196900432464 L 736 403.1786535685461 L 737 404.5375309921296 L 738 405.89622304676385 L 739 407.2546304787575 L 740 408.61265405521095 L 741 409.97019457126544 L 742 411.32715285735054 L 743 412.683429786428 L 744 414.0389262812334 L 745 415.3935433215138 L 746 416.7471819512612 L 747 418.09974328594126 L 748 419.4511285197171 L 749 420.80123893266716 L 750 422.1499758979966 L 751 423.4972408892423 L 752 424.84293548747 L 753 426.1869613884642 L 754 427.5292204099094 L 755 428.8696144985619 L 756 430.20804573741333 L 757 431.54441635284314 L 758 432.8786287217613 L 759 434.21058537873955 L 760 435.5401890231315 L 761 436.86734252618055 L 762 438.19194893811493 L 763 439.51391149523045 L 764 440.8331336269587 L 765 442.14951896292206 L 766 443.4629713399732 L 767 444.7733948092203 L 768 446.08069364303583 L 769 447.3847723420499 L 770 448.6855356421263 L 771 449.98288852132174 L 772 451.2767362068273 L 773 452.56698418189166 L 774 453.8535381927256 L 775 455.1363042553873 L 776 456.41518866264823 L 777 457.6900979908379 L 778 458.96093910666934 L 779 460.22761917404205 L 780 461.49004566082397 L 781 462.7481263456109 L 782 464.00176932446345 L 783 465.2508830176207 L 784 466.4953761761903 L 785 467.7351578888139 L 786 468.97013758830866 L 787 470.20022505828337 L 788 471.4253304397284 L 789 472.6453642375803 L 790 473.8602373272594 L 791 475.06986096118055 L 792 476.27414677523603 L 793 477.47300679525074 L 794 478.66635344340875 L 795 479.8540995446511 L 796 481.03615833304366 L 797 482.2124434581158 L 798 483.3828689911683 L 799 484.54734943155046 L 800 485.7057997129059 L 801 486.85813520938694 L 802 488.00427174183653 L 803 489.1441255839374 L 804 490.2776134683288 L 805 491.40465259268893 L 806 492.5251606257835 L 807 493.6390557134806 L 808 494.7462564847301 L 809 495.8466820575077 L 810 496.9402520447233 L 811 498.0268865600939 L 812 499.1065062239789 L 813 500.17903216917887 L 814 501.2443860466972 L 815 502.30249003146315 L 816 503.3532668280174 L 817 504.3966396761583 L 818 505.4325323565495 L 819 506.4608691962875 L 820 507.48157507443 L 821 508.49457542748337 L 822 509.4997962548497 L 823 510.4971641242322 L 824 511.48660617700017 L 825 512.4680501335108 L 826 513.4414242983895 L 827 514.4066575657675 L 828 515.3636794244759 L 829 516.3124199631965 L 830 517.2528098755693 L 831 518.1847804652551 L 832 519.1082636509537 L 833 520.023191971378 L 834 520.929498590181 L 835 521.8271173008391 L 836 522.7159825314882 L 837 523.5960293497142 L 838 524.4671934672956 L 839 525.3294112449008 L 840 526.182619696736 L 841 527.0267564951471 L 842 527.8617599751724 L 843 528.6875691390476 L 844 529.5041236606613 L 845 530.3113638899626 L 846 531.1092308573176 L 847 531.897666277818 L 848 532.6766125555387 L 849 533.4460127877446 L 850 534.2058107690486 L 851 534.9559509955166 L 852 535.6963786687216 L 853 536.4270396997484 L 854 537.1478807131434 L 855 537.8588490508143 L 856 538.5598927758767 L 857 539.2509606764485 L 858 539.9320022693901 L 859 540.6029678039934 L 860 541.263808265615 L 861 541.9144753792577 L 862 542.5549216130964 L 863 543.1851001819509 L 864 543.8049650507028 L 865 544.4144709376591 L 866 545.0135733178599 L 867 545.602228426331 L 868 546.1803932612806 L 869 546.7480255872415 L 870 547.3050839381553 L 871 547.8515276204023 L 872 548.3873167157741 L 873 548.9124120843894 L 874 549.4267753675537 L 875 549.9303689905606 L 876 550.4231561654377 L 877 550.9051008936332 L 878 551.3761679686459 L 879 551.8363229785971 L 880 552.2855323087443 L 881 552.7237631439373 L 882 553.1509834710142 L 883 553.5671620811415 L 884 553.9722685720928 L 885 554.36627335047 L 886 554.7491476338655 L 887 555.1208634529642 L 888 555.481393653587 L 889 555.8307118986747 L 890 556.1687926702116 L 891 556.4956112710893 L 892 556.8111438269115 L 893 557.1153672877379 L 894 557.4082594297674 L 895 557.6897988569629 L 896 557.9599650026124 L 897 558.2187381308333 L 898 558.466099338013 L 899 558.70203055419 L 900 558.9265145443742 L 901 559.1395349098058 L 902 559.3410760891531 L 903 559.5311233596495 L 904 559.7096628381689 L 905 559.8766814822399 L 906 560.0321670909983 L 907 560.176108306079 L 908 560.3084946124452 L 909 560.4293163391566 L 910 560.5385646600761 L 911 560.6362315945144 L 912 560.7223100078131 L 913 560.7967936118656 L 914 560.8596769655769 L 915 560.9109554752608 L 916 560.9506253949754 L 917 560.978683826797 L 918 560.9951287210316 L 919 560.9999588763648 L 920 560.9931739399491 L 921 560.9747744074305 L 922 560.9447616229115 L 923 560.9031377788535 L 924 560.849905915916 L 925 560.7850699227351 L 926 560.7086345356392 L 927 560.6206053383029 L 928 560.520988761339 L 929 560.4097920818296 L 930 560.2870234227928 L 931 560.1526917525914 L 932 560.0068068842759 L 933 559.8493794748688 L 934 559.6804210245858 L 935 559.4999438759954 L 936 559.3079612131177 L 937 559.1044870604609 L 938 558.8895362819972 L 939 558.6631245800766 L 940 558.4252684942799 L 941 558.175985400211 L 942 557.9152935082266 L 943 557.6432118621069 L 944 557.3597603376638 L 945 557.0649596412893 L 946 556.7588313084426 L 947 556.4413977020771 L 948 556.1126820110067 L 949 555.772708248212 L 950 555.4215012490856 L 951 555.0590866696189 L 952 554.6854909845267 L 953 554.3007414853139 L 954 553.9048662782817 L 955 553.4978942824744 L 956 553.0798552275668 L 957 552.6507796516923 L 958 552.2106988992127 L 959 551.7596451184272 L 960 551.2976512592254 L 961 550.8247510706792 L 962 550.340979098578 L 963 549.8463706829046 L 964 549.3409619552543 L 965 548.8247898361946 L 966 548.2978920325686 L 967 547.7603070347408 L 968 547.2120741137846 L 969 546.6532333186141 L 970 546.0838254730579 L 971 545.5038921728778 L 972 544.913475782729 L 973 544.3126194330666 L 974 543.701367016994 L 975 543.0797631870564 L 976 542.4478533519797 L 977 541.8056836733525 L 978 541.1533010622545 L 979 540.4907531758295 L 980 539.8180884138036 L 981 539.1353559149501 L 982 538.4426055534997 L 983 537.7398879354968 L 984 537.0272543951032 L 985 536.3047569908481 L 986 535.5724485018242 L 987 534.8303824238335 L 988 534.0786129654787 L 989 533.3171950442029 L 990 532.5461842822787 L 991 531.7656370027439 L 992 530.975610225288 L 993 530.1761616620864 L 994 529.3673497135844 L 995 528.5492334642313 L 996 527.7218726781637 L 997 526.8853277948404 L 998 526.0396599246264 L 999 525.1849308443301 L 1000 524.3212029926885 L 1001 523.4485394658077 L 1002 522.5670040125526 L 1003 521.676661029891 L 1004 520.7775755581879 L 1005 519.8698132764557 L 1006 518.9534404975556 L 1007 518.0285241633533 L 1008 517.0951318398289 L 1009 516.1533317121417 L 1010 515.2031925796482 L 1011 514.2447838508771 L 1012 513.2781755384585 L 1013 512.3034382540097 L 1014 511.32064320297684 L 1015 510.3298621794329 L 1016 509.3311675608337 L 1017 508.3246323027305 L 1018 507.3103299334401 L 1019 506.28833454867396 L 1020 505.25872080612544 L 1021 504.2215639200158 L 1022 503.17693965559977 L 1023 502.1249243236309 L 1024 501.0655947747867 L 1025 499.99902839405553 L 1026 498.9253030950823 L 1027 497.84449731447774 L 1028 496.75669000608787 L 1029 495.66196063522705 L 1030 494.5603891728724 L 1031 493.4520560898221 L 1032 492.33704235081694 L 1033 491.2154294086256 L 1034 490.0872991980947 L 1035 488.9527341301631 L 1036 487.8118170858419 L 1037 486.6646314101599 L 1038 485.5112609060751 L 1039 484.3517898283529 L 1040 483.186302877411 L 1041 482.0148851931323 L 1042 480.837622348645 L 1043 479.6546003440718 L 1044 478.4659056002471 L 1045 477.271624952404 L 1046 476.07184564383124 L 1047 474.86665531949956 L 1048 473.6561420196593 L 1049 472.44039417340906 L 1050 471.2195005922359 L 1051 469.9935504635273 L 1052 468.76263334405644 L 1053 467.5268391534393 L 1054 466.2862581675667 L 1055 465.04098101200907 L 1056 463.79109865539624 L 1057 462.5367024027724 L 1058 461.27788388892566 L 1059 460.0147350716945 L 1060 458.74734822525 L 1061 457.47581593335514 L 1062 456.2002310826015 L 1063 454.9206868556235 L 1064 453.637276724292 L 1065 452.3500944428855 L 1066 451.05923404124144 L 1067 449.76478981788733 L 1068 448.46685633315224 L 1069 447.16552840225876 L 1070 445.86090108839704 L 1071 444.55306969578 L 1072 443.2421297626816 L 1073 441.9281770544574 L 1074 440.6113075565489 L 1075 439.2916174674719 L 1076 437.9692031917888 L 1077 436.6441613330663 L 1078 435.31658868681853 L 1079 433.9865822334359 L 1080 432.6542391311008 L 1081 431.3196567086896 L 1082 429.98293245866336 L 1083 428.64416402994516 L 1084 427.3034492207882 L 1085 425.9608859716295 L 1086 424.61657235793666 L 1087 423.2706065830431 L 1088 421.92308697097394 L 1089 420.57411195926375 L 1090 419.2237800917651 L 1091 417.87219001145024 L 1092 416.51944045320516 L 1093 415.1656302366165 L 1094 413.8108582587531 L 1095 412.4552234869414 L 1096 411.09882495153556 L 1097 409.7417617386835 L 1098 408.38413298308836 L 1099 407.02603786076673 L 1100 405.6675755818037 L 1101 404.30884538310545 L 1102 402.94994652115 L 1103 401.59097826473635 L 1104 400.23203988773287 L 1105 398.8732306618251 L 1106 397.5146498492641 L 1107 396.15639669561506 L 1108 394.79857042250734 L 1109 393.44127022038646 L 1110 392.0845952412678 L 1111 390.72864459149366 L 1112 389.37351732449355 L 1113 388.01931243354795 L 1114 386.666128844557 L 1115 385.3140654088139 L 1116 383.9632208957835 L 1117 382.6136939858872 L 1118 381.2655832632945 L 1119 379.91898720872086 L 1120 378.57400419223416 L 1121 377.23073246606805 L 1122 375.88927015744514 L 1123 374.5497152614083 L 1124 373.2121656336623 L 1125 371.876718983425 L 1126 370.54347286629013 L 1127 369.2125246771002 L 1128 367.8839716428322 L 1129 366.5579108154947 L 1130 365.2344390650385 L 1131 363.91365307227977 L 1132 362.59564932183775 L 1133 361.2805240950863 L 1134 359.96837346312054 L 1135 358.6592932797387 L 1136 357.35337917443997 L 1137 356.0507265454386 L 1138 354.75143055269507 L 1139 353.45558611096453 L 1140 352.16328788286324 L 1141 350.8746302719529 L 1142 349.5897074158458 L 1143 348.3086131793261 L 1144 347.031441147494 L 1145 345.75828461892917 L 1146 344.4892365988751 L 1147 343.2243897924451 L 1148 341.9638365978497 L 1149 340.70766909964755 L 1150 339.4559790620179 L 1151 338.2088579220576 L 1152 336.9663967831012 L 1153 335.7286864080661 L 1154 334.495817212822 L 1155 333.2678792595859 L 1156 332.04496225034336 L 1157 330.8271555202952 L 1158 329.6145480313317 L 1159 328.4072283655339 L 1160 327.2052847187025 L 1161 326.0088048939151 L 1162 324.81787629511234 L 1163 323.63258592071236 L 1164 322.45302035725626 L 1165 321.2792657730823 L 1166 320.1114079120313 L 1167 318.9495320871834 L 1168 317.79372317462526 L 1169 316.64406560725024 L 1170 315.5006433685902 L 1171 314.36353998668073 L 1172 313.2328385279591 L 1173 312.10862159119614 L 1174 310.99097130146265 L 1175 309.8799693041298 L 1176 308.7756967589049 L 1177 307.6782343339028 L 1178 306.5876621997527 L 1179 305.5040600237418 L 1180 304.42750696399565 L 1181 303.3580816636953 L 1182 302.2958622453326 L 1183 301.24092630500303 L 1184 300.1933509067375 L 1185 299.15321257687253 L 1186 298.12058729846 L 1187 297.0955505057167 L 1188 296.0781770785135 L 1189 295.0685413369054 L 1190 294.0667170357026 L 1191 293.07277735908224 L 1192 292.08679491524265 L 1193 291.108841731099 L 1194 290.13898924702164 L 1195 289.1773083116176 L 1196 288.2238691765546 L 1197 287.2787414914295 L 1198 286.3419942986802 L 1199 285.41369602854184 L 1200 284.49391449404806 L 1201 283.58271688607766 L 1202 282.6801697684453 L 1203 281.7863390730396 L 1204 280.9012900950065 L 1205 280.0250874879797 L 1206 279.1577952593573 L 1207 278.29947676562614 L 1208 277.45019470773366 L 1209 276.61001112650735 L 1210 275.7789873981227 L 1211 274.95718422961966 L 1212 274.14466165446777 L 1213 273.34147902818097 L 1214 272.5476950239813 L 1215 271.7633676285129 L 1216 270.988554137606 L 1217 270.22331115209164 L 1218 269.46769457366645 L 1219 268.7217596008095 L 1220 267.9855607247496 L 1221 267.2591517254848 L 1222 266.5425856678539 L 1223 265.83591489765985 L 1224 265.13919103784565 L 1225 264.4524649847235 L 1226 263.77578690425696 L 1227 263.1092062283957 L 1228 262.45277165146496 L 1229 261.80653112660826 L 1230 261.1705318622842 L 1231 260.5448203188181 L 1232 259.92944220500794 L 1233 259.324442474785 L 1234 258.7298653239304 L 1235 258.1457541868465 L 1236 257.5721517333833 L 1237 257.00909986572253 L 1238 256.4566397153156 L 1239 255.91481163987945 L 1240 255.38365522044828 L 1241 254.8632092584821 L 1242 254.35351177303224 L 1243 253.85459999796402 L 1244 253.36651037923684 L 1245 252.8892785722417 L 1246 252.42293943919657 L 1247 251.96752704659963 L 1248 251.52307466274084 L 1249 251.0896147552714 L 1250 250.66717898883223 L 1251 250.2557982227406 L 1252 249.85550250873604 L 1253 249.46632108878484 L 1254 249.08828239294405 L 1255 248.72141403728457 L 1256 248.3657428218738 L 1257 248.0212947288178 L 1258 247.68809492036326 L 1259 247.36616773705973 L 1260 247.05553669598092 L 1261 246.75622448900717 L 1262 246.46825298116772 L 1263 246.19164320904338 L 1264 245.9264153792298 L 1265 245.67258886686147 L 1266 245.43018221419615 L 1267 245.1992131292605 L 1268 244.97969848455648 L 1269 244.77165431582873 L 1270 244.57509582089313 L 1271 244.39003735852674 L 1272 244.21649244741866 L 1273 244.05447376518268 L 1274 243.903993147431 L 1275 243.7650615869098 L 1276 243.63768923269603 L 1277 243.52188538945612 L 1278 243.41765851676624 L 1279 243.32501622849435 L 1280 243.2439652922439 L 1281 243.17451162885965 L 1282 243.11666031199488 L 1283 243.07041556774095 L 1284 243.0357807743186 L 1285 243.0127584618309 L 1286 243.00135031207887 L 1287 243.00155715843815 L 1288 243.01337898579845 L 1289 243.03681493056453 L 1290 243.07186328071924 L 1291 243.11852147594877 L 1292 243.17678610782943 L 1293 243.24665292007683 L 1294 243.32811680885672 L 1295 243.42117182315783 L 1296 243.52581116522674 L 1297 243.6420271910642 L 1298 243.76981141098366 L 1299 243.90915449023163 L 1300 244.06004624966923 L 1301 244.2224756665161 L 1302 244.39643087515543 L 1303 244.5818991680009 L 1304 244.77886699642485 L 1305 244.98731997174812 L 1306 245.20724286629104 L 1307 245.43861961448602 L 1308 245.68143331405085 L 1309 245.93566622722383 L 1310 246.20129978205912 L 1311 246.4783145737838 L 1312 246.76669036621502 L 1313 247.0664060932387 L 1314 247.3774398603481 L 1315 247.69976894624335 L 1316 248.0333698044913 L 1317 248.3782180652456 L 1318 248.73428853702669 L 1319 249.10155520856256 L 1320 249.4799912506885 L 1321 249.86956901830706 L 1322 250.27026005240768 L 1323 250.6820350821455 L 1324 251.10486402697978 L 1325 251.53871599887108 L 1326 251.98355930453792 L 1327 252.43936144777186 L 1328 252.9060891318113 L 1329 253.38370826177413 L 1330 253.872183947148 L 1331 254.3714805043394 L 1332 254.88156145928025 L 1333 255.40238955009244 L 1334 255.9339267298098 L 1335 256.4761341691574 L 1336 257.0289722593882 L 1337 257.5924006151764 L 1338 258.16637807756774 L 1339 258.75086271698586 L 1340 259.3458118362959 L 1341 259.951181973923 L 1342 260.56692890702755 L 1343 261.19300765473537 L 1344 261.82937248142406 L 1345 262.47597690006364 L 1346 263.1327736756128 L 1347 263.79971482846895 L 1348 264.4767516379738 L 1349 265.163834645972 L 1350 265.86091366042433 L 1351 266.5679377590742 L 1352 267.2848552931674 L 1353 268.0116138912255 L 1354 268.7481604628713 L 1355 269.4944412027071 L 1356 270.25040159424555 L 1357 271.0159864138917 L 1358 271.79113973497755 L 1359 272.5758049318473 L 1360 273.369924683994 L 1361 274.1734409802467 L 1362 274.9862951230085 L 1363 275.8084277325443 L 1364 276.63977875131843 L 1365 277.48028744838217 L 1366 278.32989242380995 L 1367 279.18853161318486 L 1368 280.05614229213245 L 1369 280.9326610809027 L 1370 281.81802394900006 L 1371 282.71216621986116 L 1372 283.6150225755789 L 1373 284.5265270616747 L 1374 285.4466130919159 L 1375 286.3752134531806 L 1376 287.31226031036664 L 1377 288.2576852113482 L 1378 289.21141909197553 L 1379 290.17339228112036 L 1380 291.1435345057655 L 1381 292.1217748961382 L 1382 293.1080419908874 L 1383 294.1022637423039 L 1384 295.1043675215835 L 1385 296.1142801241331 L 1386 297.13192777491736 L 1387 298.15723613384915 L 1388 299.1901303012193 L 1389 300.23053482316857 L 1390 301.27837369719947 L 1391 302.3335703777283 L 1392 303.3960477816769 L 1393 304.4657282941036 L 1394 305.5425337738732 L 1395 306.62638555936496 L 1396 307.7172044742194 L 1397 308.81491083312153 L 1398 309.91942444762265 L 1399 311.0306646319975 L 1400 312.14855020913916 L 1401 313.2729995164883 L 1402 314.40393041199945 L 1403 315.54126028014105 L 1404 316.68490603793083 L 1405 317.834784141005 L 1406 318.99081058972126 L 1407 320.1529009352952 L 1408 321.32097028596894 L 1409 322.49493331321315 L 1410 323.6747042579599 L 1411 324.8601969368675 L 1412 326.05132474861665 L 1413 327.2480006802362 L 1414 328.45013731345995 L 1415 329.6576468311124 L 1416 330.870441023524 L 1417 332.08843129497484 L 1418 333.3115286701667 L 1419 334.53964380072296 L 1420 335.7726869717151 L 1421 337.010568108217 L 1422 338.2531967818847 L 1423 339.50048221756225 L 1424 340.7523332999131 L 1425 342.008658580076 L 1426 343.2693662823454 L 1427 344.534364310876 L 1428 345.80356025641015 L 1429 347.07686140302854 L 1430 348.3541747349232 L 1431 349.63540694319244 L 1432 350.9204644326569 L 1433 352.2092533286971 L 1434 353.50167948411126 L 1435 354.79764848599143 L 1436 356.09706566262247 L 1437 357.3998360903967 L 1438 358.7058646007483 L 1439 360.01505578710567 L 1440 361.3273140118606 L 1441 362.6425434133552 L 1442 363.9606479128843 L 1443 365.28153122171426 L 1444 366.6050968481168 L 1445 367.9312481044179 L 1446 369.259888114061 L 1447 370.5909198186838 L 1448 371.9242459852086 L 1449 373.25976921294495 L 1450 374.5973919407053 L 1451 375.9370164539315 L 1452 377.27854489183346 L 1453 378.6218792545373 L 1454 379.966921410245 L 1455 381.3135731024024 L 1456 382.6617359568776 L 1457 384.0113114891466 L 1458 385.36220111148805 L 1459 386.71430614018533 L 1460 388.0675278027351 L 1461 389.42176724506294 L 1462 390.7769255387447 L 1463 392.1329036882333 L 1464 393.4896026380904 L 1465 394.8469232802226 L 1466 396.2047664611213 L 1467 397.56303298910603 L 1468 398.92162364157025 L 1469 400.28043917223005 L 1470 401.63938031837375 L 1471 402.9983478081135 L 1472 404.357242367637 L 1473 405.7159647284595 L 1474 407.0744156346756 L 1475 408.4324958502099 L 1476 409.79010616606615 L 1477 411.14714740757495 L 1478 412.50352044163805 L 1479 413.8591261839706 L 1480 415.21386560633886 L 1481 416.56763974379476 L 1482 417.9203497019051 L 1483 419.27189666397584 L 1484 420.62218189827104 L 1485 421.97110676522504 L 1486 423.3185727246482 L 1487 424.66448134292557 L 1488 426.00873430020715 L 1489 427.3512333975907 L 1490 428.6918805642949 L 1491 430.03057786482367 L 1492 431.3672275061208 L 1493 432.7017318447125 L 1494 434.0339933938423 L 1495 435.36391483059106 L 1496 436.6913990029871 L 1497 438.0163489371031 L 1498 439.3386678441401 L 1499 440.6582591274981 L 1500 441.97502638983264 L 1501 443.28887344009627 L 1502 444.59970430056586 L 1503 445.9074232138538 L 1504 447.2119346499028 L 1505 448.51314331296487 L 1506 449.81095414856264 L 1507 451.105272350433 L 1508 452.39600336745286 L 1509 453.6830529105465 L 1510 454.966326959573 L 1511 456.2457317701948 L 1512 457.5211738807257 L 1513 458.7925601189585 L 1514 460.0597976089708 L 1515 461.3227937779105 L 1516 462.5814563627575 L 1517 463.8356934170641 L 1518 465.0854133176716 L 1519 466.33052477140365 L 1520 467.5709368217349 L 1521 468.8065588554359 L 1522 470.03730060919213 L 1523 471.26307217619797 L 1524 472.4837840127246 L 1525 473.69934694466093 L 1526 474.9096721740283 L 1527 476.11467128546667 L 1528 477.31425625269395 L 1529 478.50833944493627 L 1530 479.6968336333293 L 1531 480.8796519972906 L 1532 482.05670813086175 L 1533 483.22791604902073 L 1534 484.3931901939628 L 1535 485.55244544135087 L 1536 486.7055971065337 L 1537 487.85256095073225 L 1538 488.9932531871936 L 1539 490.1275904873114" stroke-linecap="round" stroke-linejoin="round" stroke-miterlimit="10" stroke-width="16"/></g>




<circle cx="176" cy="557" r="14" fill="#0995FA" />
  <circle cx="550" cy="244" r="14" fill="#0995FA"/>
  <circle cx="920" cy="557" r="14" fill="#0995FA"/>
  <circle cx="1286" cy="244" r="14" fill="#0995FA"/>

  <circle cx="176" cy="557" r="6"  className="inner-circle" fill="white"/>
  <circle cx="550" cy="244" r="5"   className="inner-circle" fill="white"/>
  <circle cx="920" cy="557" r="5"   className="inner-circle" fill="white"/>
  <circle cx="1286" cy="244" r="5"  className="inner-circle" fill="white"/>


  <text x="40" y="660" font-size="46" fill="white" textAnchor="middle" className="date-event">WORKSHOPS</text>








  <text x="1120" y="120" font-size="46"  fill="white" textAnchor="middle"  className="title-event"  >F5 TALK SHOWS</text>
  <text x="1178" y="166" font-size="26"   fill="white"  textAnchor="middle" className="desc-event">Eminent speakers on</text>
  <text x="1192" y="200"   font-size="26" fill="white"  textAnchor="middle" className="desc-event">various domains </text>
 

  <text x="450" y="120" font-size="46" fill="white"  textAnchor="middle"  className="title-event">FUN ZONE</text>

  <text x="474" y="166"  font-size="26"  fill="white"  textAnchor="middle" className="desc-event">Bubble Zorbing,</text>
  <text x="506" y="200"   font-size="26"  fill="white"  textAnchor="middle" className="desc-event">Archery</text>

<text x="740" y="660" font-size="46" fill="white"  textAnchor="middle"  className="title-event">STANDUP COMEDY</text>

 
</svg>