<svg version="1.1" xmlns="http://www.w3.org/2000/svg" xmlns:xlink="http://www.w3.org/1999/xlink" width="1560" height="804"><defs/><g><path fill="none" stroke="#02063B" paint-order="fill stroke markers" d=" M 405 288.34050872023647 L 406 288.8681654096905 L 407 289.4134987181331 L 408 289.97642343834434 L 409 290.55685161448207 L 410 291.1546925558245 L 411 291.76985285094094 L 412 292.4022363822868 L 413 293.0517443412217 L 414 293.71827524344883 L 415 294.4017249448705 L 416 295.10198665786146 L 417 295.8189509679537 L 418 296.55250585093233 L 419 297.3025366903395 L 420 298.06892629538237 L 421 298.85155491924434 L 422 299.6503002777953 L 423 300.46503756869777 L 424 301.29563949090794 L 425 302.1419762645652 L 426 303.0039156512704 L 427 303.8813229747482 L 428 304.77406114188915 L 429 305.6819906641711 L 430 306.60496967945335 L 431 307.5428539741424 L 432 308.49549700572555 L 433 309.462749925667 L 434 310.4444616026662 L 435 311.44047864627066 L 436 312.4506454308438 L 437 313.4748041198807 L 438 314.5127946906697 L 439 315.5644549592962 L 440 316.6296206059826 L 441 317.70812520076373 L 442 318.79980022949087 L 443 319.90447512016175 L 444 321.0219772695723 L 445 322.1521320702851 L 446 323.29476293791186 L 447 324.4496913387042 L 448 325.61673681744907 L 449 326.795717025665 L 450 327.98644775009296 L 451 329.18874294147975 L 452 330.40241474364785 L 453 331.6272735228473 L 454 332.8631278973859 L 455 334.109784767532 L 456 335.36704934568587 L 457 336.6347251868151 L 458 337.91261421914845 L 459 339.20051677512475 L 460 340.49823162258974 L 461 341.8055559962387 L 462 343.12228562929795 L 463 344.4482147854411 L 464 345.7831362909354 L 465 347.12684156701124 L 466 348.47912066245317 L 467 349.8397622864036 L 468 351.208553841377 L 469 352.58528145647784 L 470 353.9697300208171 L 471 355.3616832171233 L 472 356.76092355554147 L 473 358.16723240761524 L 474 359.580390040448 L 475 361.0001756510344 L 476 362.42636740076136 L 477 363.8587424500697 L 478 365.2970769932719 L 479 366.7411462935221 L 480 368.19072471793 L 481 369.6455857728159 L 482 371.10550213909994 L 483 372.57024570781994 L 484 374.03958761577354 L 485 375.5132982812769 L 486 376.9911474400367 L 487 378.4729041811286 L 488 379.9583369830764 L 489 381.447213750027 L 490 382.9393018480147 L 491 384.43436814130973 L 492 385.9321790288455 L 493 387.432500480718 L 494 388.93509807475294 L 495 390.4397370331333 L 496 391.94618225908295 L 497 393.45419837360015 L 498 394.963549752235 L 499 396.4740005619055 L 500 397.9853147977456 L 501 399.49725631998075 L 502 401.00958889082403 L 503 402.5220762113881 L 504 404.0344819586063 L 505 405.54656982215766 L 506 407.0581035413898 L 507 408.5688469422343 L 508 410.0785639741082 L 509 411.58701874679707 L 510 413.09397556731153 L 511 414.59919897671415 L 512 416.10245378690973 L 513 417.60350511739233 L 514 419.1021184319457 L 515 420.5980595752883 L 516 422.0910948096598 L 517 423.5809908513426 L 518 425.06751490711116 L 519 426.55043471060634 L 520 428.0295185586257 L 521 429.5045353473272 L 522 430.97525460833845 L 523 432.4414465447671 L 524 433.9028820671062 L 525 435.3593328290285 L 526 436.8105712630657 L 527 438.256370616165 L 528 439.69650498511874 L 529 441.130749351862 L 530 442.55887961863033 L 531 443.9806726429751 L 532 445.39590627262885 L 533 446.8043593802161 L 534 448.20581189780455 L 535 449.60004485128945 L 536 450.9868403946084 L 537 452.36598184377914 L 538 453.73725371075597 L 539 455.1004417370998 L 540 456.4553329274547 L 541 457.8017155828288 L 542 459.13937933367146 L 543 460.4681151727428 L 544 461.7877154877716 L 545 463.0979740938932 L 546 464.3986862658661 L 547 465.6896487700598 L 548 466.9706598962093 L 549 468.2415194889326 L 550 469.50202897900374 L 551 470.75199141437946 L 552 471.9912114909722 L 553 473.2194955831662 L 554 474.43665177407104 L 555 475.64248988550816 L 556 476.8368215077259 L 557 478.0194600288382 L 558 479.1902206639821 L 559 480.3489204841904 L 560 481.4953784449735 L 561 482.6294154146075 L 562 483.75085420212304 L 563 484.8595195849912 L 564 485.9552383365014 L 565 487.03783925282806 L 566 488.1071531797805 L 567 489.16301303923314 L 568 490.205253855231 L 569 491.23371277976713 L 570 492.24822911822696 L 571 493.2486443544966 L 572 494.23480217573075 L 573 495.20654849677607 L 574 496.163731484247 L 575 497.1062015802492 L 576 498.0338115257475 L 577 498.94641638357524 L 578 499.8438735610799 L 579 500.7260428324035 L 580 501.59278636039215 L 581 502.44396871813296 L 582 503.27945691011433 L 583 504.09912039300593 L 584 504.9028310960563 L 585 505.69046344110313 L 586 506.46189436219504 L 587 507.2170033248199 L 588 507.9556723447388 L 589 508.67778600642 L 590 509.3832314810731 L 591 510.07189854427793 L 592 510.7436795932069 L 593 511.39846966343777 L 594 512.0361664453544 L 595 512.656670300132 L 596 513.2598842753055 L 597 513.8457141199186 L 598 514.41406829925 L 599 514.9648580091155 L 600 515.4979971897434 L 601 516.0134025392215 L 602 516.5109935265125 L 603 516.990692404037 L 604 517.4524242198213 L 605 517.8961168292086 L 606 518.3217009061314 L 607 518.7291099539434 L 608 519.1182803158099 L 609 519.4891511846535 L 610 519.8416646126556 L 611 520.1757655203102 L 612 520.4914017050302 L 613 520.7885238493038 L 614 521.0670855284008 L 615 521.3270432176251 L 616 521.568356299117 L 617 521.7909870681983 L 618 521.9949007392644 L 619 522.1800654512189 L 620 522.3464522724523 L 621 522.4940352053624 L 622 522.6227911904161 L 623 522.7327001097527 L 624 522.8237447903272 L 625 522.8959110065935 L 626 522.949187482727 L 627 522.9835658943869 L 628 522.9990408700162 L 629 522.9956099916814 L 630 522.9732737954504 L 631 522.9320357713082 L 632 522.8719023626124 L 633 522.7928829650857 L 634 522.6949899253482 L 635 522.578238538988 L 636 522.442647048172 L 637 522.2882366387946 L 638 522.1150314371682 L 639 521.9230585062531 L 640 521.7123478414292 L 641 521.4829323658092 L 642 521.2348479250944 L 643 520.968133281974 L 644 520.6828301100684 L 645 520.3789829874175 L 646 520.0566393895164 L 647 519.7158496818962 L 648 519.3566671122554 L 649 518.9791478021399 L 650 518.5833507381737 L 651 518.169337762843 L 652 517.7371735648326 L 653 517.2869256689194 L 654 516.818664425421 L 655 516.3324629992043 L 656 515.8283973582526 L 657 515.3065462617968 L 658 514.7669912480094 L 659 514.2098166212631 L 660 513.6351094389602 L 661 513.0429594979285 L 662 512.4334593203913 L 663 511.8067041395118 L 664 511.1627918845115 L 665 510.50182316537047 L 666 509.82390125710623 L 667 509.1291320836376 L 668 508.4176242012346 L 669 507.68948878155624 L 670 506.9448395942805 L 671 506.1837929893279 L 672 505.40646787868195 L 673 504.6129857178099 L 674 503.803470486685 L 675 502.97804867041526 L 676 502.13684923948006 L 677 501.2800036295789 L 678 500.4076457210955 L 679 499.5199118181778 L 680 498.6169406274423 L 681 497.6988732363005 L 682 496.7658530909142 L 683 495.8180259737832 L 684 494.855539980966 L 685 493.87854549894087 L 686 492.88719518110804 L 687 491.88164392393753 L 688 490.8620488427677 L 689 489.8285692472555 L 690 488.78136661648523 L 691 487.7206045737374 L 692 486.6464488609228 L 693 485.5590673126867 L 694 484.4586298301832 L 695 483.34530835453063 L 696 482.2192768399442 L 697 481.080711226557 L 698 479.9297894129302 L 699 478.7666912282551 L 700 477.5915984042573 L 701 476.4046945467994 L 702 475.20616510719447 L 703 473.99619735322915 L 704 472.77498033990315 L 705 471.5427048798905 L 706 470.2995635137247 L 707 469.0457504797147 L 708 467.7814616835967 L 709 466.50689466792244 L 710 465.22224858119546 L 711 463.927724146753 L 712 462.62352363140405 L 713 461.3098508138261 L 714 459.98691095272386 L 715 458.6549107547595 L 716 457.3140583422539 L 717 455.9645632206682 L 718 454.60663624587005 L 719 453.24048959118625 L 720 451.86633671425255 L 721 450.48439232366 L 722 449.09487234540796 L 723 447.69799388916636 L 724 446.29397521435175 L 725 444.8830356960259 L 726 443.4653957906179 L 727 442.04127700147853 L 728 440.6109018442716 L 729 439.174493812205 L 730 437.73227734111174 L 731 436.2844777743811 L 732 434.83132132774955 L 733 433.3730350539559 L 734 431.90984680726314 L 735 430.4419852078584 L 736 428.96967960612994 L 737 427.49316004683254 L 738 426.0126572331437 L 739 424.5284024906156 L 740 423.0406277310325 L 741 421.5495654161734 L 742 420.0554485214913 L 743 418.5585104997117 L 744 417.05898524435446 L 745 415.55710705319046 L 746 414.05311059163125 L 747 412.54723085606383 L 748 411.0397031371337 L 749 409.5307629829794 L 750 408.0206461624305 L 751 406.5095886281677 L 752 404.9978264798563 L 753 403.48559592725667 L 754 401.9731332533156 L 755 400.4606747772493 L 756 398.9484568176173 L 757 397.436715655399 L 758 395.9256874970757 L 759 394.4156084377227 L 760 392.90671442412105 L 761 391.39924121789045 L 762 389.8934243586521 L 763 388.3894991272272 L 764 386.88770050887297 L 765 385.38826315656854 L 766 383.8914213543494 L 767 382.39740898070164 L 768 380.9064594720195 L 769 379.4188057861299 L 770 377.93468036589513 L 771 376.45431510289245 L 772 374.97794130118217 L 773 373.50578964116755 L 774 372.03809014354994 L 775 370.5750721333903 L 776 369.116964204276 L 777 367.66399418260414 L 778 366.2163890919851 L 779 364.7743751177686 L 780 363.3381775717049 L 781 361.9080208567383 L 782 360.48412843194575 L 783 359.0667227776221 L 784 357.65602536051665 L 785 356.2522565992313 L 786 354.85563582977875 L 787 353.4663812713127 L 788 352.0847099920318 L 789 350.71083787526203 L 790 349.34497958572695 L 791 347.98734853600524 L 792 346.6381568531861 L 793 345.2976153457255 L 794 343.9659334705063 L 795 342.6433193001124 L 796 341.3299794903171 L 797 340.0261192477934 L 798 338.73194229805193 L 799 337.4476508536076 L 800 336.17344558238625 L 801 334.9095255763689 L 802 333.65608832048474 L 803 332.4133296617554 L 804 331.1814437786926 L 805 329.9606231509595 L 806 328.7510585292954 L 807 327.55293890571136 L 808 326.36645148396127 L 809 325.19178165029064 L 810 324.02911294447136 L 811 322.8786270311232 L 812 321.74050367132924 L 813 320.61492069454926 L 814 319.5020539708331 L 815 318.4020773833426 L 816 317.3151628011814 L 817 316.2414800525415 L 818 315.18119689816825 L 819 314.13447900514717 L 820 313.1014899210197 L 821 312.0823910482286 L 822 311.0773416188992 L 823 310.0864986699603 L 824 309.1100170186065 L 825 308.1480492381096 L 826 307.2007456339779 L 827 306.26825422047216 L 828 305.35072069747895 L 829 304.44828842774416 L 830 303.56109841447426 L 831 302.68928927930364 L 832 301.8329972406359 L 833 300.99235609236024 L 834 300.16749718294545 L 835 299.3585493949183 L 836 298.5656391247248 L 837 297.7888902629812 L 838 297.0284241751172 L 839 296.28435968241166 L 840 295.55681304342795 L 841 294.84589793584803 L 842 294.1517254387112 L 843 293.47440401505787 L 844 292.81403949498235 L 845 292.1707350590976 L 846 291.5445912224128 L 847 290.9357058186285 L 848 290.3441739848504 L 849 289.77008814672394 L 850 289.21353800399345 L 851 288.6746105164864 L 852 288.15338989052617 L 853 287.6499575657753 L 854 287.16439220251016 L 855 286.69676966933105 L 856 286.24716303130725 L 857 285.8156425385613 L 858 285.40227561529224 L 859 285.0071268492408 L 860 284.6302579815979 L 861 284.2717278973572 L 862 283.93159261611504 L 863 283.60990528331706 L 864 283.3067161619545 L 865 283.02207262471086 L 866 282.75601914655965 L 867 282.5085972978155 L 868 282.279845737639 L 869 282.06980020799597 L 870 281.87849352807314 L 871 281.70595558914994 L 872 281.55221334992837 L 873 281.4172908323205 L 874 281.3012091176952 L 875 281.2039863435842 L 876 281.1256377008482 L 877 281.0661754313031 L 878 281.0256088258078 L 879 281.00394422281164 L 880 281.0011850073649 L 881 281.0173316105893 L 882 281.0523815096109 L 883 281.1063292279544 L 884 281.1791663363985 L 885 281.2708814542932 L 886 281.3814602513379 L 887 281.51088544982065 L 888 281.6591368273173 L 889 281.8261912198519 L 890 282.0120225255154 L 891 282.21660170854443 L 892 282.43989680385783 L 893 282.6818729220512 L 894 282.9424922548485 L 895 283.221714081009 L 896 283.51949477269056 L 897 283.83578780226605 L 898 284.1705437495929 L 899 284.5237103097355 L 900 284.89523230113736 L 901 285.2850516742431 L 902 285.6931075205689 L 903 286.11933608221875 L 904 286.5636707618472 L 905 287.02604213306455 L 906 287.50637795128466 L 907 288.0046031650133 L 908 288.5206399275743 L 909 289.05440760927354 L 910 289.6058228099966 L 911 290.1747993722402 L 912 290.76124839457424 L 913 291.3650782455319 L 914 291.9861945779276 L 915 292.62450034359796 L 916 293.2798958085657 L 917 293.952278568623 L 918 294.6415435653314 L 919 295.3475831024376 L 920 296.07028686270013 L 921 296.80954192512695 L 922 297.5652327826187 L 923 298.33724136001604 L 924 299.1254470325497 L 925 299.92972664468664 L 926 300.74995452937395 L 927 301.5860025276735 L 928 302.43774000878625 L 929 303.30503389046385 L 930 304.18774865980157 L 931 305.0857463944127 L 932 305.99888678397826 L 933 306.92702715217 L 934 307.8700224789439 L 935 308.82772542319833 L 936 309.799986345797 L 937 310.7866533329488 L 938 311.7875722199441 L 939 312.80258661524346 L 940 313.8315379249124 L 941 314.87426537740237 L 942 315.93060604867037 L 943 317.0003948876354 L 944 318.0834647419682 L 945 319.17964638420716 L 946 320.288768538201 L 947 321.4106579058698 L 948 322.5451391942821 L 949 323.692035143045 L 950 324.85116655199954 L 951 326.0223523092214 L 952 327.205409419319 L 953 328.4001530320254 L 954 329.60639647108235 L 955 330.823951263406 L 956 332.0526271685375 L 957 333.2922322083666 L 958 334.54257269712735 L 959 335.80345327166253 L 960 337.07467692194734 L 961 338.3560450218729 L 962 339.6473573602807 L 963 340.9484121722446 L 964 342.25900617059773 L 965 343.5789345776937 L 966 344.90799115740464 L 967 346.24596824734397 L 968 347.59265679131323 L 969 348.94784637196756 L 970 350.3113252436918 L 971 351.68288036568634 L 972 353.06229743525404 L 973 354.4493609212838 L 974 355.8438540979283 L 975 357.24555907846536 L 976 358.6542568493437 L 977 360.06972730440293 L 978 361.4917492792637 L 979 362.9201005858859 L 980 364.3545580472836 L 981 365.79489753239693 L 982 367.24089399111193 L 983 368.6923214894234 L 984 370.1489532447381 L 985 371.61056166130726 L 986 373.07691836578977 L 987 374.5477942429339 L 988 376.02295947137605 L 989 377.5021835595508 L 990 378.98523538170355 L 991 380.47188321400444 L 992 381.96189477075455 L 993 383.45503724067913 L 994 384.95107732330536 L 995 386.4497812654137 L 996 387.95091489756254 L 997 389.454243670676 L 998 390.9595326926914 L 999 392.4665467652621 L 1000 393.9750504205047 L 1001 395.4848079577924 L 1002 396.9955834805818 L 1003 398.50714093327065 L 1004 400.0192441380827 L 1005 401.5316568319681 L 1006 403.0441427035207 L 1007 404.55646542990036 L 1008 406.06838871375754 L 1009 407.5796763201555 L 1010 409.09009211348007 L 1011 410.5994000943366 L 1012 412.10736443642406 L 1013 413.61374952338156 L 1014 415.1183199856043 L 1015 416.6208407370182 L 1016 418.121077011813 L 1017 419.6187944011232 L 1018 421.1137588896533 L 1019 422.60573689224395 L 1020 424.0944952903672 L 1021 425.57980146855255 L 1022 427.06142335073156 L 1023 428.53912943649914 L 1024 430.0126888372862 L 1025 431.4818713124339 L 1026 432.9464473051698 L 1027 434.40618797847475 L 1028 435.8608652508381 L 1029 437.310251831896 L 1030 438.75412125794344 L 1031 440.1922479273204 L 1032 441.6244071356609 L 1033 443.0503751110018 L 1034 444.4699290487486 L 1035 445.8828471464862 L 1036 447.28890863863654 L 1037 448.68789383095236 L 1038 450.0795841348432 L 1039 451.4637621015308 L 1040 452.84021145602355 L 1041 454.2087171309105 L 1042 455.5690652999642 L 1043 456.92104341155067 L 1044 458.2644402218408 L 1045 459.59904582781576 L 1046 460.92465170006506 L 1047 462.2410507153683 L 1048 463.5480371890572 L 1049 464.84540690715465 L 1050 466.13295715828133 L 1051 467.4104867653301 L 1052 468.67779611689934 L 1053 469.93468719848073 L 1054 471.18096362340026 L 1055 472.4164306635018 L 1056 473.640895279574 L 1057 474.85416615151195 L 1058 476.05605370820996 L 1059 477.24637015718287 L 1060 478.4249295139069 L 1061 479.5915476308804 L 1062 480.74604222639647 L 1063 481.8882329130228 L 1064 483.0179412257889 L 1065 484.1349906500688 L 1066 485.23920664916284 L 1067 486.33041669156785 L 1068 487.4084502779344 L 1069 488.4731389677082 L 1070 489.5243164054473 L 1071 490.5618183468158 L 1072 491.5854826842463 L 1073 492.5951494722684 L 1074 493.59066095250097 L 1075 494.57186157830023 L 1076 495.5385980390649 L 1077 496.4907192841898 L 1078 497.42807654666734 L 1079 498.3505233663325 L 1080 499.25791561274616 L 1081 500.150111507716 L 1082 501.02697164744876 L 1083 501.88835902433135 L 1084 502.7341390483388 L 1085 503.5641795680629 L 1086 504.3783508913613 L 1087 505.1765258056212 L 1088 505.958579597636 L 1089 506.7243900730919 L 1090 507.47383757566 L 1091 508.2068050056929 L 1092 508.92317783852087 L 1093 509.6228441423461 L 1094 510.3056945957323 L 1095 510.9716225046852 L 1096 511.62052381932386 L 1097 512.2522971501382 L 1098 512.8668437838305 L 1099 513.4640676987397 L 1100 514.0438755798439 L 1101 514.6061768333414 L 1102 515.1508836008054 L 1103 515.6779107729116 L 1104 516.1871760027367 L 1105 516.6785997186245 L 1106 517.1521051366192 L 1107 517.6076182724628 L 1108 518.0450679531542 L 1109 518.4643858280712 L 1110 518.8655063796485 L 1111 519.2483669336165 L 1112 519.6129076687921 L 1113 519.9590716264273 L 1114 520.286804719108 L 1115 520.5960557392052 L 1116 520.8867763668761 L 1117 521.1589211776144 L 1118 521.4124476493466 L 1119 521.6473161690778 L 1120 521.8634900390794 L 1121 522.0609354826238 L 1122 522.2396216492625 L 1123 522.3995206196454 L 1124 522.5406074098836 L 1125 522.6628599754533 L 1126 522.7662592146397 L 1127 522.8507889715221 L 1128 522.916436038498 L 1129 522.9631901583468 L 1130 522.9910440258323 L 1131 522.9999932888443 L 1132 522.9900365490788 L 1133 522.9611753622561 L 1134 522.9134142378779 L 1135 522.8467606385226 L 1136 522.7612249786798 L 1137 522.656820623122 L 1138 522.5335638848176 L 1139 522.391474022381 L 1140 522.2305732370643 L 1141 522.0508866692877 L 1142 521.8524423947119 L 1143 521.635271419851 L 1144 521.3994076772282 L 1145 521.1448880200733 L 1146 520.8717522165648 L 1147 520.5800429436164 L 1148 520.2698057802086 L 1149 519.9410892002668 L 1150 519.5939445650881 L 1151 519.2284261153153 L 1152 518.8445909624626 L 1153 518.4424990799916 L 1154 518.0222132939411 L 1155 517.58379927311 L 1156 517.1273255187971 L 1157 516.6528633540977 L 1158 516.16048691276 L 1159 515.6502731276009 L 1160 515.1223017184866 L 1161 514.5766551798756 L 1162 514.0134187679291 L 1163 513.432680487191 L 1164 512.8345310768359 L 1165 512.2190639964923 L 1166 511.5863754116393 L 1167 510.9365641785812 L 1168 510.269731829001 L 1169 509.58598255409663 L 1170 508.88542318830144 L 1171 508.1681631925909 L 1172 507.4343146373799 L 1173 506.68399218501247 L 1174 505.9173130718451 L 1175 505.1343970899295 L 1176 504.33536656829506 L 1177 503.5203463538349 L 1178 502.6894637917997 L 1179 501.8428487058991 L 1180 500.98063337801796 L 1181 500.1029525275472 L 1182 499.20994329033374 L 1183 498.3017451972544 L 1184 497.37850015241327 L 1185 496.4403524109705 L 1186 495.48744855660186 L 1187 494.51993747859586 L 1188 493.5379703485903 L 1189 492.5417005969511 L 1190 491.53128388880043 L 1191 490.506878099693 L 1192 489.4686432909491 L 1193 488.4167416846457 L 1194 487.3513376382682 L 1195 486.2725976190318 L 1196 485.1806901778695 L 1197 484.0757859230975 L 1198 482.95805749375785 L 1199 481.8276795326434 L 1200 480.68482865901115 L 1201 479.52968344098474 L 1202 478.3624243676543 L 1203 477.18323382087544 L 1204 475.99229604677186 L 1205 474.789797126948 L 1206 473.57592494941355 L 1207 472.3508691792264 L 1208 471.1148212288586 L 1209 469.8679742282874 L 1210 468.6105229948202 L 1211 467.34266400265386 L 1212 466.0645953521762 L 1213 464.77651673901397 L 1214 463.4786294228296 L 1215 462.1711361958761 L 1216 460.8542413513098 L 1217 459.5281506512708 L 1218 458.1930712947334 L 1219 456.84921188513056 L 1220 455.49678239776125 L 1221 454.13599414698126 L 1222 452.76705975318595 L 1223 451.39019310958975 L 1224 450.00560934880406 L 1225 448.61352480922494 L 1226 447.2141570012294 L 1227 445.8077245731901 L 1228 444.3944472773131 L 1229 442.97454593530006 L 1230 441.5482424038473 L 1231 440.11575953997965 L 1232 438.67732116622994 L 1233 437.23315203566807 L 1234 435.7834777967821 L 1235 434.32852495822283 L 1236 432.8685208534111 L 1237 431.4036936050176 L 1238 429.93427208932025 L 1239 428.46048590044086 L 1240 426.9825653144734 L 1241 425.50074125350244 L 1242 424.0152452495226 L 1243 422.5263094082626 L 1244 421.034166372918 L 1245 419.53904928780275 L 1246 418.0411917619194 L 1247 416.5408278324588 L 1248 415.0381919282327 L 1249 413.53351883304384 L 1250 412.0270436490024 L 1251 410.51900175979074 L 1252 409.0096287938858 L 1253 407.499160587743 L 1254 405.98783314894627 L 1255 404.4758826193334 L 1256 402.9635452380984 L 1257 401.4510573048801 L 1258 399.9386551428413 L 1259 398.4265750617424 L 1260 396.91505332102025 L 1261 395.4043260928714 L 1262 393.8946294253514 L 1263 392.3861992054936 L 1264 390.8792711224505 L 1265 389.3740806306697 L 1266 387.87086291310294 L 1267 386.3698528444602 L 1268 384.8712849545112 L 1269 383.3753933914396 L 1270 381.88241188525916 L 1271 380.3925737112925 L 1272 378.9061116537231 L 1273 377.4232579692236 L 1274 375.9442443506649 L 1275 374.46930189091637 L 1276 372.9986610467363 L 1277 371.5325516027644 L 1278 370.07120263561893 L 1279 368.6148424781025 L 1280 367.1636986835271 L 1281 365.71799799015815 L 1282 364.27796628578767 L 1283 362.8438285724394 L 1284 361.4158089312141 L 1285 359.9941304872749 L 1286 358.5790153749864 L 1287 357.1706847032058 L 1288 355.7693585207349 L 1289 354.37525578193953 L 1290 352.988594312536 L 1291 351.60959077555765 L 1292 350.2384606375016 L 1293 348.875418134662 L 1294 347.5206762396576 L 1295 346.1744466281528 L 1296 344.8369396457856 L 1297 343.5083642753008 L 1298 342.18892810389667 L 1299 340.8788372907914 L 1300 339.57829653500875 L 1301 338.2875090433959 L 1302 337.0066764988723 L 1303 335.7359990289168 L 1304 334.4756751742997 L 1305 333.2259018580587 L 1306 331.98687435473187 L 1307 330.75878625984575 L 1308 329.5418294596663 L 1309 328.33619410121844 L 1310 327.14206856257357 L 1311 325.9596394234178 L 1312 324.78909143589834 L 1313 323.6306074957566 L 1314 322.4843686137518 L 1315 321.35055388737703 L 1316 320.22934047287646 L 1317 319.12090355756504 L 1318 318.0254163324554 L 1319 316.9430499651982 L 1320 315.8739735733361 L 1321 314.81835419788024 L 1322 313.77635677721037 L 1323 312.7481441213032 L 1324 311.733876886295 L 1325 310.7337135493773 L 1326 309.74781038403677 L 1327 308.77632143563716 L 1328 307.8193984973499 L 1329 306.87719108643773 L 1330 305.9498464208915 L 1331 305.0375093964285 L 1332 304.14032256385264 L 1333 303.2584261067809 L 1334 302.39195781974104 L 1335 301.54105308663986 L 1336 300.70584485961064 L 1337 299.8864636382397 L 1338 299.08303744917566 L 1339 298.29569182612636 L 1340 297.52454979024344 L 1341 296.769731830901 L 1342 296.03135588686956 L 1343 295.309537327888 L 1344 294.604388936638 L 1345 293.91602089112075 L 1346 293.24454074744307 L 1347 292.5900534230112 L 1348 291.95266118013785 L 1349 291.33246361006456 L 1350 290.7295576173997 L 1351 290.144037404978 L 1352 289.57599445914144 L 1353 289.0255175354444 L 1354 288.49269264478664 L 1355 287.97760303997313 L 1356 287.4803292027067 L 1357 287.0009488310127 L 1358 286.53953682709874 L 1359 286.096165285652 L 1360 285.67090348257364 L 1361 285.26381786415516 L 1362 284.87497203669636 L 1363 284.50442675656643 L 1364 284.1522399207118 L 1365 283.8184665576089 L 1366 283.5031588186667 L 1367 283.20636597007785 L 1368 282.92813438512115 L 1369 282.66850753691574 L 1370 282.42752599162844 L 1371 282.2052274021354 L 1372 282.0016465021389 L 1373 281.8168151007404 L 1374 281.6507620774705 L 1375 281.503513377776 L 1376 281.3750920089669 L 1377 281.26551803662056 L 1378 281.17480858144734 L 1379 281.1029778166151 L 1380 281.05003696553473 L 1381 281.0159943001064 L 1382 281.00085513942736 L 1383 281.0046218489607 L 1384 281.02729384016567 L 1385 281.06886757058976 L 1386 281.12933654442224 L 1387 281.208691313509 L 1388 281.3069194788287 L 1389 281.4240056924304 L 1390 281.5599316598315 L 1391 281.714676142876 L 1392 281.8882149630534 L 1393 282.08052100527607 L 1394 282.29156422211605 L 1395 282.5213116385002 L 1396 282.76972735686206 L 1397 283.036772562751 L 1398 283.3224055308972 L 1399 283.62658163173006 L 1400 283.94925333835295 L 1401 284.2903702339681 L 1402 284.6498790197545 L 1403 285.0277235231961 L 1404 285.42384470685755 L 1405 285.83818067761 L 1406 286.270666696301 L 1407 286.72123518787 L 1408 287.189815751907 L 1409 287.6763351736519 L 1410 288.1807174354351 L 1411 288.70288372855424 L 1412 289.2427524655884 L 1413 289.800239293146 L 1414 290.37525710504406 L 1415 290.96771605591954 L 1416 291.5775235752667 L 1417 292.2045843819012 L 1418 292.84880049884816 L 1419 293.5100712686494 L 1420 294.1882933690928 L 1421 294.88336082935484 L 1422 295.5951650465591 L 1423 296.323594802745 L 1424 297.0685362822447 L 1425 297.82987308946775 L 1426 298.607486267087 L 1427 299.40125431462553 L 1428 300.21105320744107 L 1429 301.03675641610363 L 1430 301.87823492616695 L 1431 302.73535725832596 L 1432 303.6079894889599 L 1433 304.4959952710584 L 1434 305.39923585552424 L 1435 306.3175701128539 L 1436 307.2508545551881 L 1437 308.1989433587313 L 1438 309.1616883865373 L 1439 310.13893921165356 L 1440 311.1305431406272 L 1441 312.13634523736164 L 1442 313.15618834732567 L 1443 314.18991312210846 L 1444 315.23735804431647 L 1445 316.29835945281195 L 1446 317.3727515682833 L 1447 318.4603665191485 L 1448 319.5610343677845 L 1449 320.67458313707857 L 1450 321.8008388373013 L 1451 322.939625493291 L 1452 324.09076517194944 L 1453 325.25407801004417 L 1454 326.4293822423103 L 1455 327.61649422985306 L 1456 328.81522848883964 L 1457 330.02539771948074 L 1458 331.2468128352966 L 1459 332.4792829926596 L 1460 333.7226156206155 L 1461 334.9766164509707 L 1462 336.24108954864676 L 1463 337.515837342295 L 1464 338.8006606551655 L 1465 340.09535873622985 L 1466 341.3997292915471 L 1467 342.71356851587154 L 1468 344.03667112449784 L 1469 345.36883038533455 L 1470 346.7098381512077 L 1471 348.05948489238216 L 1472 349.4175597293005 L 1473 350.78385046553285 L 1474 352.15814362093056 L 1475 353.54022446498453 L 1476 354.9298770503747 L 1477 356.32688424671187 L 1478 357.73102777446417 L 1479 359.1420882390613 L 1480 360.55984516517685 L 1481 361.9840770311756 L 1482 363.4145613037261 L 1483 364.8510744725714 L 1484 366.29339208545065 L 1485 367.7412887831716 L 1486 369.1945383348211 L 1487 370.65291367311323 L 1488 372.1161869298689 L 1489 373.5841294716178 L 1490 375.0565119353249 L 1491 376.53310426422576 L 1492 378.01367574377304 L 1493 379.4979950376857 L 1494 380.9858302240931 L 1495 382.4769488317748 L 1496 383.97111787648197 L 1497 385.4681038973413 L 1498 386.967672993333 L 1499 388.4695908598359 L 1500 389.9736228252394 L 1501 391.47953388760885 L 1502 392.98708875140454 L 1503 394.4960518642465 L 1504 396.00618745371753 L 1505 397.51725956420455 L 1506 399.02903209376456 L 1507 400.5412688310155 L 1508 402.0537334920442 L 1509 403.5661897573237 L 1510 405.07840130863997 L 1511 406.5901318660148 L 1512 408.10114522462413 L 1513 409.61120529170535 L 1514 411.1200761234442 L 1515 412.62752196184357 L 1516 414.133307271558 L 1517 415.6371967766964 L 1518 417.1389554975837 L 1519 418.6383487874742 L 1520 420.13514236921725 L 1521 421.62910237186094 L 1522 423.1199953671944 L 1523 424.6075884062206 L 1524 426.091649055553 L 1525 427.57194543373475 L 1526 429.04824624746846 L 1527 430.52032082775554 L 1528 431.98793916593814 L 1529 433.45087194963594 L 1530 434.90889059857824 L 1531 436.36176730031747 L 1532 437.80927504582485 L 1533 439.2511876649605 L 1534 440.68727986181045 L 1535 442.11732724989105 L 1536 443.5411063872073 L 1537 444.9583948111658 L 1538 446.368971073334 L 1539 447.77261477404005" stroke-linecap="round" stroke-linejoin="round" stroke-miterlimit="10" stroke-width="14"/></g></svg>