<svg version="1.1" xmlns="http://www.w3.org/2000/svg" xmlns:xlink="http://www.w3.org/1999/xlink" width="1560" height="804"><defs/><g><path fill="none" stroke="#3D019F" paint-order="fill stroke markers" d=" M 20 458.9023735138413 L 21 461.7190911946034 L 22 464.53166174025444 L 23 467.3398898345257 L 24 470.143580462706 L 25 472.9425389251839 L 26 475.73657085096875 L 27 478.52548221118866 L 28 481.3090793325644 L 29 484.08716891085896 L 30 486.85955802430135 L 31 489.6260541469841 L 32 492.3864651622325 L 33 495.14059937594675 L 34 497.88826552991304 L 35 500.62927281508615 L 36 503.36343088483943 L 37 506.09054986818364 L 38 508.8104403829518 L 39 511.52291354895135 L 40 514.2277810010802 L 41 516.924854902408 L 42 519.6139479572198 L 43 522.2948734240231 L 44 524.9674451285157 L 45 527.6314774765143 L 46 530.2867854668432 L 47 532.9331847041813 L 48 535.5704914118671 L 49 538.1985224446616 L 50 540.8170953014658 L 51 543.4260281379946 L 52 546.0251397794054 L 53 548.6142497328784 L 54 551.193178200152 L 55 553.7617460900077 L 56 556.3197750307079 L 57 558.8670873823817 L 58 561.403506249362 L 59 563.9288554924686 L 60 566.4429597412416 L 61 568.9456444061184 L 62 571.4367356905584 L 63 573.9160606031127 L 64 576.3834469694364 L 65 578.8387234442455 L 66 581.2817195232161 L 67 583.7122655548246 L 68 586.1301927521288 L 69 588.5353332044895 L 70 590.9275198892307 L 71 593.3065866832385 L 72 595.6723683744972 L 73 598.0247006735622 L 74 600.3634202249693 L 75 602.6883646185786 L 76 604.9993724008523 L 77 607.2962830860678 L 78 609.5789371674616 L 79 611.8471761283065 L 80 614.1008424529198 L 81 616.339779637601 L 82 618.5638322015012 L 83 620.7728456974193 L 84 622.9666667225281 L 85 625.1451429290269 L 86 627.3081230347213 L 87 629.455456833529 L 88 631.58699520591 L 89 633.7025901292227 L 90 635.8020946880035 L 91 637.8853630841685 L 92 639.9522506471383 L 93 642.002613843885 L 94 644.0363102888996 L 95 646.0531987540794 L 96 648.0531391785363 L 97 650.0359926783221 L 98 652.0016215560739 L 99 653.9498893105765 L 100 655.8806606462407 L 101 657.7938014824999 L 102 659.6891789631204 L 103 661.5666614654276 L 104 663.426118609447 L 105 665.2674212669573 L 106 667.0904415704583 L 107 668.8950529220508 L 108 670.6811300022268 L 109 672.4485487785739 L 110 674.1971865143871 L 111 675.9269217771932 L 112 677.637634447183 L 113 679.329205725553 L 114 681.0015181427552 L 115 682.6544555666551 L 116 684.2879032105957 L 117 685.9017476413694 L 118 687.4958767870949 L 119 689.0701799449996 L 120 690.6245477891084 L 121 692.1588723778345 L 122 693.6730471614758 L 123 695.166966989614 L 124 696.6405281184173 L 125 698.0936282178435 L 126 699.5261663787478 L 127 700.938043119889 L 128 702.3291603948387 L 129 703.6994215987896 L 130 705.0487315752644 L 131 706.3769966227234 L 132 707.6841245010723 L 133 708.9700244380672 L 134 710.2346071356178 L 135 711.4777847759897 L 136 712.6994710279017 L 137 713.899581052522 L 138 715.0780315093587 L 139 716.2347405620483 L 140 717.369627884038 L 141 718.4826146641643 L 142 719.573623612126 L 143 720.6425789638511 L 144 721.6894064867586 L 145 722.7140334849137 L 146 723.7163888040753 L 147 724.6964028366381 L 148 725.6540075264659 L 149 726.5891363736176 L 150 727.501724438966 L 151 728.3917083487067 L 152 729.259026298759 L 153 730.1036180590581 L 154 730.9254249777383 L 155 731.7243899852047 L 156 732.5004575980972 L 157 733.2535739231437 L 158 733.9836866609019 L 159 734.6907451093916 L 160 735.3747001676163 L 161 736.0355043389714 L 162 736.6731117345441 L 163 737.2874780762991 L 164 737.8785607001541 L 165 738.4463185589424 L 166 738.9907122252628 L 167 739.5117038942185 L 168 740.0092573860418 L 169 740.4833381486069 L 170 740.9339132598292 L 171 741.3609514299512 L 172 741.7644230037165 L 173 742.1442999624276 L 174 742.5005559258929 L 175 742.8331661542582 L 176 743.1421075497244 L 177 743.4273586581523 L 178 743.6888996705518 L 179 743.9267124244575 L 180 744.1407804051908 L 181 744.3310887470052 L 182 744.4976242341204 L 183 744.640375301639 L 184 744.7593320363496 L 185 744.8544861774159 L 186 744.9258311169494 L 187 744.9733619004694 L 188 744.9970752272458 L 189 744.9969694505295 L 190 744.9730445776661 L 191 744.9253022700955 L 192 744.8537458432363 L 193 744.7583802662563 L 194 744.6392121617266 L 195 744.4962498051623 L 196 744.329503124447 L 197 744.1389836991447 L 198 743.9247047596941 L 199 743.6866811864913 L 200 743.4249295088554 L 201 743.1394679038808 L 202 742.8303161951758 L 203 742.4974958514842 L 204 742.1410299851967 L 205 741.7609433507439 L 206 741.3572623428779 L 207 740.9300149948403 L 208 740.4792309764139 L 209 740.0049415918631 L 210 739.5071797777604 L 211 738.9859801006983 L 212 738.4413787548891 L 213 737.8734135596522 L 214 737.2821239567868 L 215 736.667551007833 L 216 736.0297373912209 L 217 735.3687273993066 L 218 734.684566935296 L 219 733.9773035100575 L 220 733.2469862388225 L 221 732.4936658377746 L 222 731.7173946205278 L 223 730.9182264944939 L 224 730.0962169571378 L 225 729.2514230921249 L 226 728.3839035653566 L 227 727.4937186208956 L 228 726.5809300767831 L 229 725.6456013207458 L 230 724.6877973057933 L 231 723.7075845457088 L 232 722.7050311104285 L 233 721.6802066213162 L 234 720.6331822463271 L 235 719.5640306950668 L 236 718.4728262137406 L 237 717.3596445799994 L 238 716.2245630976759 L 239 715.0676605914167 L 240 713.8890174012088 L 241 712.6887153768 L 242 711.4668378720154 L 243 710.2234697389682 L 244 708.9586973221681 L 245 707.6726084525245 L 246 706.3652924412478 L 247 705.0368400736465 L 248 703.6873436028236 L 249 702.3168967432695 L 250 700.9255946643541 L 251 699.5135339837182 L 252 698.0808127605637 L 253 696.6275304888445 L 254 695.1537880903563 L 255 693.659687907729 L 256 692.1453336973194 L 257 690.6108306220058 L 258 689.0562852438848 L 259 687.4818055168719 L 260 685.8875007792044 L 261 684.2734817458485 L 262 682.6398605008103 L 263 680.9867504893532 L 264 679.3142665101194 L 265 677.6225247071574 L 266 675.911642561857 L 267 674.1817388847907 L 268 672.4329338074631 L 269 670.6653487739684 L 270 668.879106532557 L 271 667.074331127111 L 272 665.2511478885308 L 273 663.4096834260304 L 274 661.5500656183466 L 275 659.6724236048575 L 276 657.776887776615 L 277 655.86358976729 L 278 653.9326624440306 L 279 651.9842398982364 L 280 650.0184574362453 L 281 648.0354515699385 L 282 646.0353600072597 L 283 644.0183216426524 L 284 641.9844765474148 L 285 639.9339659599723 L 286 637.8669322760693 L 287 635.7835190388809 L 288 633.6838709290448 L 289 631.5681337546137 L 290 629.4364544409298 L 291 627.2889810204223 L 292 625.1258626223267 L 293 622.9472494623291 L 294 620.7532928321348 L 295 618.5441450889612 L 296 616.3199596449581 L 297 614.0808909565543 L 298 611.8270945137313 L 299 609.5587268292247 L 300 607.2759454276571 L 301 604.978908834597 L 302 602.6677765655514 L 303 600.3427091148881 L 304 598.0038679446899 L 305 595.6514154735427 L 306 593.285515065256 L 307 590.9063310175186 L 308 588.5140285504885 L 309 586.1087737953204 L 310 583.6907337826278 L 311 581.2600764308842 L 312 578.8169705347623 L 313 576.3615857534116 L 314 573.8940925986778 L 315 571.4146624232606 L 316 568.9234674088143 L 317 566.4206805539918 L 318 563.9064756624298 L 319 561.3810273306799 L 320 558.8445109360835 L 321 556.2971026245932 L 322 553.7389792985401 L 323 551.1703186043493 L 324 548.5912989202036 L 325 546.0020993436557 L 326 543.402899679191 L 327 540.7938804257418 L 328 538.1752227641522 L 329 535.5471085445963 L 330 532.9097202739498 L 331 530.263241103116 L 332 527.6078548143072 L 333 524.9437458082818 L 334 522.2710990915391 L 335 519.5901002634714 L 336 516.9009355034755 L 337 514.2037915580233 L 338 511.4988557276938 L 339 508.7863158541661 L 340 506.06636030717465 L 341 503.3391779714281 L 342 500.6049582334927 L 343 497.86389096864036 L 344 495.1161665276629 L 345 492.36197572365336 L 346 489.6015098187551 L 347 486.83496051088 L 348 484.06251992039597 L 349 481.28438057678534 L 350 478.500735405275 L 351 475.71177771343866 L 352 472.9177011777731 L 353 470.1186998302479 L 354 467.31496804483226 L 355 464.5067005239954 L 356 461.69409228518657 L 357 458.877338647292 L 358 456.0566352170713 L 359 453.2321778755735 L 360 450.4041627645345 L 361 447.57278627275593 L 362 444.7382450224676 L 363 441.90073585567256 L 364 439.06045582047835 L 365 436.21760215741256 L 366 433.372372285726 L 367 430.5249637896829 L 368 427.67557440484 L 369 424.8244020043154 L 370 421.97164458504636 L 371 419.11750025404064 L 372 416.2621672146186 L 373 413.40584375264945 L 374 410.5487282227812 L 375 407.69101903466634 L 376 404.83291463918334 L 377 401.97461351465563 L 378 399.116314153068 L 379 396.25821504628317 L 380 393.40051467225703 L 381 390.54341148125604 L 382 387.6871038820758 L 383 384.8317902282628 L 384 381.97766880434006 L 385 379.12493781203716 L 386 376.27379535652665 L 387 373.4244394326665 L 388 370.5770679112507 L 389 367.7318785252686 L 390 364.8890688561728 L 391 362.0488363201592 L 392 359.2113781544567 L 393 356.37689140363113 L 394 353.545572905901 L 395 350.7176192794686 L 396 347.89322690886587 L 397 345.07259193131694 L 398 342.25591022311704 L 399 339.44337738603093 L 400 336.6351887337085 L 401 333.83153927812214 L 402 331.03262371602386 L 403 328.2386364154252 L 404 325.4497714020992 L 405 322.6662223461065 L 406 319.88818254834626 L 407 317.11584492713246 L 408 314.3494020047969 L 409 311.58904589431955 L 410 308.83496828598777 L 411 306.08736043408413 L 412 303.34641314360533 L 413 300.61231675701146 L 414 297.88526114100875 L 415 295.1654356733633 L 416 292.45302922975065 L 417 289.7482301706393 L 418 287.0512263282103 L 419 284.36220499331336 L 420 281.6813529024604 L 421 279.00885622485816 L 422 276.34490054947975 L 423 273.6896708721764 L 424 271.04335158283095 L 425 268.4061264525526 L 426 265.7781786209158 L 427 263.15969058324146 L 428 260.55084417792426 L 429 257.95182057380526 L 430 255.36280025759018 L 431 252.78396302131603 L 432 250.2154879498656 L 433 247.65755340853113 L 434 245.1103370306278 L 435 242.57401570515813 L 436 240.04876556452825 L 437 237.53476197231643 L 438 235.0321795110951 L 439 232.54119197030727 L 440 230.06197233419775 L 441 227.59469276980047 L 442 225.13952461498255 L 443 222.69663836654567 L 444 220.26620366838677 L 445 217.8483892997163 L 446 215.4433631633383 L 447 213.05129227399004 L 448 210.67234274674422 L 449 208.30667978547314 L 450 205.9544676713761 L 451 203.6158697515713 L 452 201.2910484277523 L 453 198.98016514490996 L 454 196.68338038012143 L 455 194.40085363140568 L 456 192.13274340664742 L 457 189.87920721258956 L 458 187.64040154389545 L 459 185.41648187228148 L 460 183.2076026357198 L 461 181.01391722771424 L 462 178.8355779866476 L 463 176.67273618520284 L 464 174.52554201985816 L 465 172.39414460045654 L 466 170.27869193985111 L 467 168.17933094362647 L 468 166.096207399897 L 469 164.02946596918275 L 470 161.97925017436364 L 471 159.94570239071257 L 472 157.92896383600842 L 473 155.92917456072905 L 474 153.94647343832634 L 475 151.98099815558123 L 476 150.03288520304298 L 477 148.10226986555043 L 478 146.18928621283712 L 479 144.2940670902214 L 480 142.4167441093806 L 481 140.55744763921172 L 482 138.71630679677816 L 483 136.8934494383426 L 484 135.08900215048953 L 485 133.30309024133265 L 486 131.5358377318151 L 487 129.78736734709503 L 488 128.0578005080245 L 489 126.34725732271647 L 490 124.65585657820509 L 491 122.98371573219521 L 492 121.3309509049073 L 493 119.69767687101199 L 494 118.08400705166127 L 495 116.49005350661037 L 496 114.91592692643724 L 497 113.36173662485538 L 498 111.82759053112187 L 499 110.31359518254362 L 500 108.81985571707787 L 501 107.34647586603188 L 502 105.8935579468585 L 503 104.46120285605173 L 504 103.04951006213923 L 505 101.65857759877588 L 506 100.28850205793447 L 507 98.93937858319941 L 508 97.61130086315853 L 509 96.30436112489787 L 510 95.01865012759583 L 511 93.75425715622191 L 512 92.51127001533547 L 513 91.28977502298824 L 514 90.08985700473067 L 515 88.91159928772049 L 516 87.75508369493696 L 517 86.62039053949792 L 518 85.50759861908341 L 519 84.41678521046265 L 520 83.34802606412865 L 521 82.30139539903689 L 522 81.27696589745199 L 523 80.27480869989967 L 524 79.29499340022721 L 525 78.3375880407699 L 526 77.40265910762622 L 527 76.49027152604094 L 528 75.60048865589602 L 529 74.733372287311 L 530 73.88898263635184 L 531 73.06737834084953 L 532 72.26861645632755 L 533 71.4927524520404 L 534 70.73984020712089 L 535 70.00993200683911 L 536 69.30307853897108 L 537 68.61932889027918 L 538 67.95873054310312 L 539 67.32132937206262 L 540 66.70716964087171 L 541 66.11629399926494 L 542 65.54874348003557 L 543 65.00455749618595 L 544 64.4837738381907 L 545 63.98642867137232 L 546 63.5125565333899 L 547 63.0621903318401 L 548 62.63536134197284 L 549 62.23209920451848 L 550 61.85243192363015 L 551 61.4963858649387 L 552 61.163985753721704 L 553 60.855254673186664 L 554 60.570214062867876 L 555 60.30888371713763 L 556 60.07128178383152 L 557 59.857424762988444 L 558 59.66732750570435 L 559 59.50100321310134 L 560 59.35846343541061 L 561 59.23971807117056 L 562 59.14477536653931 L 563 59.07364191472209 L 564 59.02632265551341 L 565 59.00282087495384 L 566 59.00313820510206 L 567 59.027274623921414 L 568 59.075228455281376 L 569 59.14699636907409 L 570 59.24257338144537 L 571 59.361952855141226 L 572 59.5051264999683 L 573 59.67208437337007 L 574 59.86281488111666 L 575 60.077304778110715 L 576 60.315539169306646 L 577 60.57750151074532 L 578 60.863173610702574 L 579 61.17253563095318 L 580 61.50556608814759 L 581 61.86224185530472 L 582 62.24253816341735 L 583 62.64642860317258 L 584 63.073885126785285 L 585 63.524878049946665 L 586 63.99937605388493 L 587 64.49734618754036 L 588 65.01875386985398 L 589 65.5635628921683 L 590 66.13173542074259 L 591 66.72323199937944 L 592 67.33801155216537 L 593 67.97603138632286 L 594 68.63724719517546 L 595 69.32161306122435 L 596 70.02908145933719 L 597 70.75960326004844 L 598 71.51312773297104 L 599 72.28960255031944 L 600 73.08897379054349 L 601 73.91118594207262 L 602 74.75618190717114 L 603 75.62390300590346 L 604 76.51428898020845 L 605 77.42727799808472 L 606 78.36280665788405 L 607 79.32080999271437 L 608 80.30122147495126 L 609 81.30397302085811 L 610 82.32899499531374 L 611 83.37621621664874 L 612 84.44556396158777 L 613 85.53696397030075 L 614 86.65034045155886 L 615 87.78561608799845 L 616 88.94271204148981 L 617 90.12154795861227 L 618 91.3220419762344 L 619 92.54411072719819 L 620 93.78766934610974 L 621 95.05263147523095 L 622 96.33890927047821 L 623 97.64641340752127 L 624 98.97505308798748 L 625 100.32473604576597 L 626 101.6953685534163 L 627 103.08685542867602 L 628 104.49910004107153 L 629 105.9320043186276 L 630 107.38546875467893 L 631 108.85939241477911 L 632 110.35367294371065 L 633 111.86820657259318 L 634 113.40288812608861 L 635 114.95761102970613 L 636 116.53226731720184 L 637 118.12674763807792 L 638 119.74094126517474 L 639 121.37473610236162 L 640 123.02801869232007 L 641 124.70067422442384 L 642 126.39258654271055 L 643 128.10363815394965 L 644 129.83371023579969 L 645 131.58268264506194 L 646 133.35043392602154 L 647 135.13684131888328 L 648 136.94178076829638 L 649 138.7651269319686 L 650 140.60675318937172 L 651 142.46653165053306 L 652 144.34433316491845 L 653 146.24002733039913 L 654 148.15348250230923 L 655 150.08456580258593 L 656 152.03314312899874 L 657 153.99907916446043 L 658 155.98223738642565 L 659 157.9824800763701 L 660 159.99966832935556 L 661 162.03366206367505 L 662 164.08432003058076 L 663 166.15149982409403 L 664 168.23505789089288 L 665 170.33484954028262 L 666 172.45072895424212 L 667 174.58254919755177 L 668 176.73016222799538 L 669 178.8934189066427 L 670 181.0721690082044 L 671 183.26626123146616 L 672 185.47554320979367 L 673 187.6998615217158 L 674 189.93906170157643 L 675 192.19298825026348 L 676 194.4614846460055 L 677 196.74439335524193 L 678 199.04155584356377 L 679 201.35281258672086 L 680 203.67800308170206 L 681 206.01696585787906 L 682 208.3695384882219 L 683 210.73555760057613 L 684 213.11485888901032 L 685 215.50727712522396 L 686 217.91264617002378 L 687 220.3307989848589 L 688 222.7615676434228 L 689 225.20478334331284 L 690 227.66027641775437 L 691 230.12787634738166 L 692 232.60741177207984 L 693 235.09871050288584 L 694 237.60159953394404 L 695 240.11590505452253 L 696 242.64145246108123 L 697 245.178066369399 L 698 247.72557062675114 L 699 250.28378832414404 L 700 252.85254180859855 L 701 255.43165269548882 L 702 258.02094188092815 L 703 260.6202295542086 L 704 263.22933521028585 L 705 265.84807766231626 L 706 268.47627505423714 L 707 271.1137448733966 L 708 273.76030396322903 L 709 276.4157685359716 L 710 279.07995418543004 L 711 281.7526758997822 L 712 284.43374807442814 L 713 287.12298452487704 L 714 289.82019849967895 L 715 292.5252026933912 L 716 295.237809259588 L 717 297.95782982390296 L 718 300.68507549711273 L 719 303.4193568882521 L 720 306.1604841177684 L 721 308.9082668307053 L 722 311.6625142099229 L 723 314.4230349893494 L 724 317.1896374672618 L 725 319.96212951960035 L 726 322.74031861330843 L 727 325.524011819705 L 728 328.31301582787984 L 729 331.1071369581205 L 730 333.90618117535973 L 731 336.7099541026523 L 732 339.5182610346711 L 733 342.33090695123065 L 734 345.14769653082755 L 735 347.96843416420694 L 736 350.79292396794426 L 737 353.620969798049 L 738 356.45237526358676 L 739 359.2869437403153 L 740 362.1244783843412 L 741 364.96478214578735 L 742 367.80765778247894 L 743 370.6529078736387 L 744 373.50033483359874 L 745 376.3497409255195 L 746 379.20092827512354 L 747 382.05369888443465 L 748 384.9078546455299 L 749 387.7631973542943 L 750 390.619528724188 L 751 393.47665040001345 L 752 396.334363971691 L 753 399.1924709880384 L 754 402.0507729705497 L 755 404.909071427181 L 756 407.76716786613196 L 757 410.6248638096324 L 758 413.48196080772306 L 759 416.33826045203887 L 760 419.1935643895852 L 761 422.04767433651455 L 762 424.90039209189354 L 763 427.7515195514696 L 764 430.60085872142537 L 765 433.44821173213097 L 766 436.2933808518824 L 767 439.13616850063374 L 768 441.9763772637193 L 769 444.81380990556016 L 770 447.64826938336375 L 771 450.4795588608048 L 772 453.30748172169694 L 773 456.1318415836441 L 774 458.95244231168033 L 775 461.76908803188803 L 776 464.58158314500247 L 777 467.3897323399928 L 778 470.19334060762725 L 779 472.99221325401345 L 780 475.78615591412074 L 781 478.5749745652758 L 782 481.3584755406372 L 783 484.1364655426454 L 784 486.90875165644377 L 785 489.675141363278 L 786 492.43544255386297 L 787 495.1894635417259 L 788 497.9370130765155 L 789 500.6779003572854 L 790 503.4119350457422 L 791 506.138927279465 L 792 508.8586876850886 L 793 511.57102739145614 L 794 514.2757580427331 L 795 516.9726918114893 L 796 519.6616414117414 L 797 522.3424201119583 L 798 525.0148417480306 L 799 527.6787207361957 L 800 530.3338720859284 L 801 532.9801114127849 L 802 535.6172549512091 L 803 538.2451195672925 L 804 540.8635227714932 L 805 543.4722827313072 L 806 546.0712182838973 L 807 548.6601489486719 L 808 551.23889493982 L 809 553.8072771787951 L 810 556.3651173067518 L 811 558.9122376969314 L 812 561.4484614669966 L 813 563.9736124913165 L 814 566.4875154131955 L 815 568.9899956570526 L 816 571.4808794405426 L 817 573.9599937866266 L 818 576.4271665355818 L 819 578.8822263569593 L 820 581.32500276148 L 821 583.7553261128758 L 822 586.1730276396678 L 823 588.5779394468888 L 824 590.9698945277403 L 825 593.3487267751925 L 826 595.7142709935172 L 827 598.0663629097609 L 828 600.4048391851527 L 829 602.7295374264462 L 830 605.0402961971984 L 831 607.3369550289782 L 832 609.6193544325124 L 833 611.8873359087593 L 834 614.1407419599172 L 835 616.3794161003598 L 836 618.6032028675054 L 837 620.8119478326103 L 838 623.0054976114959 L 839 625.1836998751975 L 840 627.3464033605446 L 841 629.4934578806644 L 842 631.6247143354109 L 843 633.7400247217207 L 844 635.8392421438889 L 845 637.9222208237718 L 846 639.9888161109089 L 847 642.0388844925697 L 848 644.0722836037174 L 849 646.0888722368984 L 850 648.0885103520452 L 851 650.071059086204 L 852 652.0363807631754 L 853 653.984338903078 L 854 655.9147982318229 L 855 657.8276246905111 L 856 659.7226854447404 L 857 661.5998488938308 L 858 663.458984679964 L 859 665.2999636972354 L 860 667.1226581006197 L 861 668.926941314849 L 862 670.7126880432035 L 863 672.4797742762107 L 864 674.2280773002595 L 865 675.95747570612 L 866 677.6678493973759 L 867 679.3590795987636 L 868 681.0310488644211 L 869 682.6836410860435 L 870 684.3167415009464 L 871 685.9302367000348 L 872 687.5240146356794 L 873 689.0979646294977 L 874 690.6519773800389 L 875 692.1859449703759 L 876 693.6997608755976 L 877 695.1933199702082 L 878 696.666518535426 L 879 698.1192542663875 L 880 699.5514262792504 L 881 700.9629351182009 L 882 702.3536827623586 L 883 703.7235726325853 L 884 705.0725095981903 L 885 706.4003999835378 L 886 707.7071515745511 L 887 708.9926736251172 L 888 710.256876863388 L 889 711.4996734979801 L 890 712.7209772240711 L 891 713.920703229393 L 892 715.0987682001221 L 893 716.2550903266645 L 894 717.389589309337 L 895 718.5021863639439 L 896 719.5928042272484 L 897 720.6613671623368 L 898 721.7078009638792 L 899 722.7320329632822 L 900 723.7339920337354 L 901 724.7136085951503 L 902 725.6708146189926 L 903 726.6055436330066 L 904 727.5177307258307 L 905 728.4073125515058 L 906 729.2742273338736 L 907 730.1184148708671 L 908 730.939816538691 L 909 731.738375295893 L 910 732.5140356873246 L 911 733.2667438479928 L 912 733.9964475067998 L 913 734.7030959901739 L 914 735.3866402255876 L 915 736.0470327449659 L 916 736.6842276879826 L 917 737.298180805245 L 918 737.8888494613666 L 919 738.4561926379281 L 920 739.000170936326 L 921 739.520746580508 L 922 740.017883419597 L 923 740.491546930401 L 924 740.9417042198111 L 925 741.3683240270855 L 926 741.7713767260199 L 927 742.1508343270057 L 928 742.5066704789729 L 929 742.8388604712209 L 930 743.1473812351335 L 931 743.4322113457815 L 932 743.693331023411 L 933 743.9307221348158 L 934 744.1443681945975 L 935 744.3342543663098 L 936 744.5003674634895 L 937 744.6426959505716 L 938 744.7612299436905 L 939 744.8559612113668 L 940 744.9268831750778 L 941 744.9739909097161 L 942 744.9972811439302 L 943 744.9967522603516 L 944 744.9724042957087 L 945 744.9242389408221 L 946 744.8522595404891 L 947 744.75647109325 L 948 744.6368802510418 L 949 744.4934953187362 L 950 744.3263262535627 L 951 744.1353846644166 L 952 743.920683811054 L 953 743.6822386031699 L 954 743.4200655993636 L 955 743.1341830059885 L 956 742.8246106758871 L 957 742.491370107014 L 958 742.1344844409412 L 959 741.753978461252 L 960 741.34987859182 L 961 740.9222128949737 L 962 740.4710110695478 L 963 739.9963044488214 L 964 739.498125998341 L 965 738.9765103136324 L 966 738.4314936177971 L 967 737.8631137589978 L 968 737.2714102078298 L 969 736.6564240545795 L 970 736.0181980063714 L 971 735.3567763842028 L 972 734.6722051198647 L 973 733.9645317527529 L 974 733.2338054265672 L 975 732.4800768858975 L 976 731.7033984727009 L 977 730.9038241226657 L 978 730.0814093614676 L 979 729.2362113009121 L 980 728.3682886349694 L 981 727.4777016356977 L 982 726.5645121490589 L 983 725.6287835906224 L 984 724.6705809411621 L 985 723.6899707421435 L 986 722.6870210911031 L 987 721.6618016369191 L 988 720.6143835749749 L 989 719.5448396422148 L 990 718.4532441120937 L 991 717.3396727894177 L 992 716.204203005081 L 993 715.046913610696 L 994 713.8678849731166 L 995 712.6671989688575 L 996 711.4449389784086 L 997 710.2011898804451 L 998 708.9360380459322 L 999 707.6495713321276 L 1000 706.3418790764802 L 1001 705.0130520904274 L 1002 703.6631826530867 L 1003 702.2923645048486 L 1004 700.9006928408668 L 1005 699.4882643044481 L 1006 698.0551769803396 L 1007 696.601530387918 L 1008 695.1274254742802 L 1009 693.6329646072298 L 1010 692.1182515681712 L 1011 690.5833915449005 L 1012 689.0284911243034 L 1013 687.4536582849505 L 1014 685.8590023896005 L 1015 684.2446341776049 L 1016 682.6106657572195 L 1017 680.9572105978161 L 1018 679.2843835220053 L 1019 677.5923006976616 L 1020 675.8810796298571 L 1021 674.1508391527004 L 1022 672.4016994210843 L 1023 670.6337819023436 L 1024 668.8472093678173 L 1025 667.0421058843245 L 1026 665.2185968055481 L 1027 663.3768087633309 L 1028 661.5168696588796 L 1029 659.6389086538848 L 1030 657.7430561615498 L 1031 655.8294438375367 L 1032 653.8982045708209 L 1033 651.9494724744641 L 1034 649.9833828763004 L 1035 648.0000723095408 L 1036 645.9996785032879 L 1037 643.982340372974 L 1038 641.9481980107151 L 1039 639.8973926755795 L 1040 637.8300667837802 L 1041 635.7463638987839 L 1042 633.6464287213433 L 1043 631.530407079446 L 1044 629.3984459181888 L 1045 627.2506932895731 L 1046 625.0872983422246 L 1047 622.9084113110335 L 1048 620.7141835067239 L 1049 618.5047673053441 L 1050 616.280316137688 L 1051 614.0409844786366 L 1052 611.7869278364324 L 1053 609.5183027418818 L 1054 607.2352667374821 L 1055 604.9379783664825 L 1056 602.6265971618743 L 1057 600.301283635313 L 1058 597.9621992659695 L 1059 595.6095064893187 L 1060 593.2433686858571 L 1061 590.8639501697603 L 1062 588.4714161774683 L 1063 586.0659328562136 L 1064 583.6476672524818 L 1065 581.2167873004137 L 1066 578.7734618101392 L 1067 576.3178604560575 L 1068 573.8501537650544 L 1069 571.3705131046581 L 1070 568.8791106711399 L 1071 566.3761194775561 L 1072 563.8617133417347 L 1073 561.3360668742018 L 1074 558.7993554660584 L 1075 556.2517552767989 L 1076 553.6934432220803 L 1077 551.1245969614333 L 1078 548.5453948859271 L 1079 545.9560161057797 L 1080 543.3566404379226 L 1081 540.7474483935096 L 1082 538.1286211653835 L 1083 535.5003406154952 L 1084 532.8627892622704 L 1085 530.2161502679376 L 1086 527.560607425807 L 1087 524.8963451475101 L 1088 522.2235484501894 L 1089 519.5424029436524 L 1090 516.8530948174813 L 1091 514.1558108281052 L 1092 511.4507382858278 L 1093 508.73806504182176 L 1094 506.01797947508277 L 1095 503.29067047934984 L 1096 500.5563274499845 L 1097 497.81514027081977 L 1098 495.06729930097606 L 1099 492.31299536163795 L 1100 489.55241972280555 L 1101 486.78576409001045 L 1102 484.0132205910053 L 1103 481.23498176241833 L 1104 478.45124053638494 L 1105 475.6621902271488 L 1106 472.8680245176395 L 1107 470.06893744601894 L 1108 467.2651233922088 L 1109 464.456777064391 L 1110 461.6440934854887 L 1111 458.8272679796195 L 1112 456.0064961585331 L 1113 453.18197390802914 L 1114 450.35389737435037 L 1115 447.52246295056403 L 1116 444.68786726292217 L 1117 441.85030715720956 L 1118 439.0099796850704 L 1119 436.1670820903266 L 1120 433.321811795279 L 1121 430.47436638700043 L 1122 427.6249436036104 L 1123 424.773741320546 L 1124 421.9209575368193 L 1125 419.06679036126997 L 1126 416.21143799880434 L 1127 413.3550987366327 L 1128 410.4979709305017 L 1129 407.64025299091566 L 1130 404.7821433693608 L 1131 401.9238405445228 L 1132 399.06554300850587 L 1133 396.2074492530451 L 1134 393.3497577557251 L 1135 390.49266696619503 L 1136 387.6363752923906 L 1137 384.78108108675184 L 1138 381.9269826324511 L 1139 379.0742781296222 L 1140 376.2231656815994 L 1141 373.37384328115627 L 1142 370.5265087967583 L 1143 367.6813599588238 L 1144 364.8385943459892 L 1145 361.99840937139066 L 1146 359.16100226895395 L 1147 356.3265700796999 L 1148 353.49530963805734 L 1149 350.66741755819703 L 1150 347.8430902203764 L 1151 345.0225237573044 L 1152 342.205914040518 L 1153 339.39345666678224 L 1154 336.5853469445062 L 1155 333.78177988018206 L 1156 330.98295016483985 L 1157 328.18905216052883 L 1158 325.4002798868221 L 1159 322.6168270073397 L 1160 319.8388868163016 L 1161 317.0666522251044 L 1162 314.30031574892604 L 1163 311.540069493354 L 1164 308.78610514104673 L 1165 306.0386139384214 L 1166 303.29778668237515 L 1167 300.56381370703207 L 1168 297.83688487052785 L 1169 295.11718954182413 L 1170 292.40491658756014 L 1171 289.7002543589339 L 1172 287.00339067862376 L 1173 284.314512827747 L 1174 281.63380753285105 L 1175 278.9614609529486 L 1176 276.2976586665886 L 1177 273.64258565897154 L 1178 270.9964263090999 L 1179 268.3593643769762 L 1180 265.73158299084093 L 1181 263.11326463445766 L 1182 260.5045911344372 L 1183 257.9057436476131 L 1184 255.31690264846048 L 1185 252.7382479165648 L 1186 250.16995852413453 L 1187 247.6122128235671 L 1188 245.06518843506478 L 1189 242.52906223429716 L 1190 240.00401034012006 L 1191 237.4902081023442 L 1192 234.98783008956022 L 1193 232.49705007701286 L 1194 230.01804103453532 L 1195 227.5509751145365 L 1196 225.0960236400483 L 1197 222.65335709282485 L 1198 220.22314510150582 L 1199 217.80555642983572 L 1200 215.40075896494616 L 1201 213.00891970569415 L 1202 210.63020475106654 L 1203 208.26477928864688 L 1204 205.9128075831412 L 1205 203.57445296497266 L 1206 201.24987781893853 L 1207 198.93924357293508 L 1208 196.64271068674483 L 1209 194.36043864089527 L 1210 192.09258592558294 L 1211 189.83931002966946 L 1212 187.60076742974144 L 1213 185.37711357924655 L 1214 183.16850289769692 L 1215 180.97508875994777 L 1216 178.79702348554326 L 1217 176.63445832814068 L 1218 174.4875434650077 L 1219 172.35642798659103 L 1220 170.2412598861647 L 1221 168.14218604955184 L 1222 166.0593522449262 L 1223 163.99290311268675 L 1224 161.942982155415 L 1225 159.90973172790868 L 1226 157.89329302729791 L 1227 155.8938060832373 L 1228 153.91140974818322 L 1229 151.94624168775076 L 1230 149.99843837115517 L 1231 148.0681350617325 L 1232 146.1554658075475 L 1233 144.26056343208614 L 1234 142.38355952502917 L 1235 140.52458443311588 L 1236 138.68376725109124 L 1237 136.8612358127428 L 1238 135.05711668202093 L 1239 133.2715351442514 L 1240 131.50461519743408 L 1241 129.75647954363382 L 1242 128.02724958045684 L 1243 126.3170453926225 L 1244 124.62598574362272 L 1245 122.95418806747654 L 1246 121.30176846057259 L 1247 119.66884167360797 L 1248 118.05552110362078 L 1249 116.46191878611296 L 1250 114.88814538727166 L 1251 113.33431019628347 L 1252 111.80052111774626 L 1253 110.28688466417367 L 1254 108.7935059486 L 1255 107.32048867728014 L 1256 105.8679351424887 L 1257 104.4359462154149 L 1258 103.02462133915884 L 1259 101.6340585218249 L 1260 100.26435432971715 L 1261 98.91560388063158 L 1262 97.58790083725148 L 1263 96.28133740064408 L 1264 94.99600430385595 L 1265 93.73199080561346 L 1266 92.48938468412348 L 1267 91.268272230979 L 1268 90.06873824516481 L 1269 88.8908660271702 L 1270 87.73473737320325 L 1271 86.60043256951207 L 1272 85.48803038680734 L 1273 84.39760807479365 L 1274 83.32924135680423 L 1275 82.28300442454338 L 1276 81.25896993293293 L 1277 80.25720899506746 L 1278 79.27779117727664 L 1279 78.32078449429287 L 1280 77.38625540452898 L 1281 76.47426880546266 L 1282 75.58488802913058 L 1283 74.71817483772895 L 1284 73.87418941932555 L 1285 73.05299038367957 L 1286 72.25463475817207 L 1287 71.47917798384498 L 1288 70.72667391155147 L 1289 69.99717479821635 L 1290 69.29073130320728 L 1291 68.60739248481627 L 1292 67.94720579685321 L 1293 67.31021708535087 L 1294 66.69647058538021 L 1295 66.10600891797941 L 1296 65.5388730871934 L 1297 64.99510247722725 L 1298 64.47473484971027 L 1299 63.977806341074086 L 1300 63.5043514600431 L 1301 63.05440308523845 L 1302 62.6279924628941 L 1303 62.225149204687455 L 1304 61.845901285682885 L 1305 61.4902750423891 L 1306 61.15829517092999 L 1307 60.849984725329875 L 1308 60.56536511591253 L 1309 60.30445610781425 L 1310 60.06727581961121 L 1311 59.85384072206148 L 1312 59.66416563696106 L 1313 59.49826373611461 L 1314 59.356146540420866 L 1315 59.2378239190723 L 1316 59.14330408887014 L 1317 59.07259361365351 L 1318 59.02569740384365 L 1319 59.002618716102916 L 1320 59.003359153108704 L 1321 59.02791866344211 L 1322 59.07629554159138 L 1323 59.14848642807061 L 1324 59.2444863096527 L 1325 59.364288519717945 L 1326 59.50788473871643 L 1327 59.675264994746215 L 1328 59.86641766424577 L 1329 60.08132947280092 L 1330 60.31998549606686 L 1331 60.5823691608046 L 1332 60.8684622460317 L 1333 61.178244884287835 L 1334 61.51169556301426 L 1335 61.868791126047824 L 1336 62.24950677522912 L 1337 62.65381607212436 L 1338 63.08169093986146 L 1339 63.533101665079926 L 1340 64.00801689999412 L 1341 64.50640366457043 L 1342 65.02822734881693 L 1343 65.5734517151875 L 1344 66.14203890109815 L 1345 66.73394942155619 L 1346 67.34914217190203 L 1347 67.98757443066421 L 1348 68.64920186252584 L 1349 69.33397852140342 L 1350 70.04185685363734 L 1351 70.77278770129459 L 1352 71.5267203055825 L 1353 72.30360231037292 L 1354 73.1033797658389 L 1355 73.92599713220079 L 1356 74.7713972835835 L 1357 75.63952151198242 L 1358 76.53030953134186 L 1359 77.4436994817408 L 1360 78.37962793368871 L 1361 79.33802989253007 L 1362 80.31883880295857 L 1363 81.32198655363845 L 1364 82.34740348193492 L 1365 83.39501837875065 L 1366 84.46475849347246 L 1367 85.5565495390224 L 1368 86.67031569701624 L 1369 87.80597962302971 L 1370 88.96346245196878 L 1371 90.14268380354684 L 1372 91.34356178786572 L 1373 92.56601301110373 L 1374 93.8099525813061 L 1375 95.07529411428072 L 1376 96.36194973959567 L 1377 97.66983010668326 L 1378 98.99884439104358 L 1379 100.34890030055232 L 1380 101.719904081869 L 1381 103.1117605269489 L 1382 104.52437297965406 L 1383 105.95764334246456 L 1384 107.41147208329267 L 1385 108.88575824239342 L 1386 110.38039943937633 L 1387 111.89529188031389 L 1388 113.43033036495126 L 1389 114.98540829401048 L 1390 116.56041767659406 L 1391 118.15524913768269 L 1392 119.76979192573287 L 1393 121.40393392036651 L 1394 123.05756164015759 L 1395 124.73056025051187 L 1396 126.42281357164279 L 1397 128.1342040866391 L 1398 129.86461294962436 L 1399 131.61391999401218 L 1400 133.3820037408496 L 1401 135.16874140725417 L 1402 136.97400891493845 L 1403 138.79768089882919 L 1404 140.63963071577155 L 1405 142.49973045332445 L 1406 144.3778509386417 L 1407 146.27386174744478 L 1408 148.18763121307833 L 1409 150.11902643565463 L 1410 152.06791329128066 L 1411 154.03415644137522 L 1412 156.01761934206561 L 1413 158.01816425366894 L 1414 160.03565225025957 L 1415 162.06994322931524 L 1416 164.12089592144702 L 1417 166.18836790020802 L 1418 168.27221559198648 L 1419 170.3722942859747 L 1420 172.4884581442188 L 1421 174.62056021174496 L 1422 176.76845242676674 L 1423 178.93198563096587 L 1424 181.11100957985082 L 1425 183.30537295318874 L 1426 185.5149233655167 L 1427 187.7395073767222 L 1428 189.9789705026976 L 1429 192.23315722607063 L 1430 194.5019110070026 L 1431 196.7850742940598 L 1432 199.0824885351528 L 1433 201.3939941885497 L 1434 203.71943073395354 L 1435 206.05863668365032 L 1436 208.41144959372158 L 1437 210.7777060753279 L 1438 213.15724180605343 L 1439 215.54989154131806 L 1440 217.95548912585082 L 1441 220.37386750523103 L 1442 222.8048587374882 L 1443 225.2482940047626 L 1444 227.70400362503213 L 1445 230.17181706389323 L 1446 232.65156294640508 L 1447 235.1430690689879 L 1448 237.64616241138506 L 1449 240.1606691486759 L 1450 242.68641466334805 L 1451 245.22322355742142 L 1452 247.7709196646317 L 1453 250.32932606266198 L 1454 252.89826508542998 L 1455 255.47755833542382 L 1456 258.06702669609376 L 1457 260.66649034428923 L 1458 263.275768762745 L 1459 265.8946807526199 L 1460 268.52304444607836 L 1461 271.1606773189207 L 1462 273.8073962032563 L 1463 276.4630173002268 L 1464 279.12735619276776 L 1465 281.80022785841624 L 1466 284.4814466821574 L 1467 287.17082646931766 L 1468 289.86818045849265 L 1469 292.57332133451763 L 1470 295.28606124147336 L 1471 298.00621179573477 L 1472 300.7335840990516 L 1473 303.4679887516644 L 1474 306.20923586546064 L 1475 308.95713507715897 L 1476 311.7114955615303 L 1477 314.4721260446466 L 1478 317.2388348171677 L 1479 320.0114297476519 L 1480 322.7897182958993 L 1481 325.57350752632067 L 1482 328.3626041213387 L 1483 331.1568143948106 L 1484 333.95594430548 L 1485 336.7597994704489 L 1486 339.5681851786805 L 1487 342.3809064045187 L 1488 345.1977678212299 L 1489 348.0185738145704 L 1490 350.84312849636876 L 1491 353.6712357181301 L 1492 356.5026990846549 L 1493 359.33732196768113 L 1494 362.17490751953676 L 1495 365.0152586868104 L 1496 367.8581782240336 L 1497 370.70346870738155 L 1498 373.5509325483808 L 1499 376.40037200763174 L 1500 379.2515892085382 L 1501 382.1043861510519 L 1502 384.9585647254213 L 1503 387.8139267259467 L 1504 390.6702738647484 L 1505 393.52740778553414 L 1506 396.3851300773749 L 1507 399.243242288481 L 1508 402.1015459399869 L 1509 404.9598425397322 L 1510 407.8179335960469 L 1511 410.6756206315326 L 1512 413.53270519684986 L 1513 416.38898888449654 L 1514 419.24427334258723 L 1515 422.09836028862526 L 1516 424.95105152327585 L 1517 427.8021489441281 L 1518 430.6514545594501 L 1519 433.4987705019421 L 1520 436.34389904247445 L 1521 439.1866426038204 L 1522 442.02680377437383 L 1523 444.86418532186207 L 1524 447.6985902070402 L 1525 450.5298215973753 L 1526 453.35768288071296 L 1527 456.18197767893446 L 1528 459.00250986159165 L 1529 461.81908355952817 L 1530 464.63150317847897 L 1531 467.43957341265696 L 1532 470.24309925831386 L 1533 473.0418860272803 L 1534 475.8357393604894 L 1535 478.62446524147134 L 1536 481.4078700098279 L 1537 484.18576037467864 L 1538 486.95794342808745 L 1539 489.7242266584564" stroke-linecap="round" stroke-linejoin="round" stroke-miterlimit="10" stroke-width="24"/></g></svg>