<svg width="195" height="195" viewBox="0 0 195 195" fill="none" xmlns="http://www.w3.org/2000/svg">
<path fill-rule="evenodd" clip-rule="evenodd" d="M91.5106 0.208929C80.9616 0.919233 70.9667 3.19162 61.3554 7.06523C57.8191 8.49053 53.5134 10.5306 53.5134 10.7809C53.5134 10.8814 53.8953 11.3358 54.3623 11.7906L55.2112 12.6173L57.4748 12.6882L59.7385 12.7591L61.7596 11.9082L63.7807 11.0574L65.815 8.91674L67.8493 6.77629L69.6934 7.55467C71.7952 8.44186 71.2566 8.45447 75.2607 7.42548C79.2968 6.3884 83.5063 5.65351 88.5062 5.11299C91.6493 4.77327 100.338 4.63649 103.661 4.87433C113.281 5.56329 122.222 7.51651 130.72 10.7857C131.806 11.2034 131.908 11.214 133.227 11.046C135.221 10.7919 138.57 10.5485 140.073 10.5485C140.907 10.5485 141.32 10.4926 141.22 10.3931C141.135 10.3076 139.938 9.71695 138.561 9.08053C128.393 4.38263 117.894 1.54918 106.548 0.440956C103.377 0.131158 94.6626 -0.00320813 91.5106 0.208929ZM47.2884 8.21663C46.488 8.52804 45.2693 9.04626 44.5801 9.36786L43.327 9.95269V14.2609V18.569L41.885 19.8252C41.0921 20.5161 39.9934 21.5874 39.4436 22.206L38.4441 23.3308L34.3147 23.3164C32.0436 23.3084 30.1287 23.3612 30.0595 23.4333C29.7892 23.7153 29.0484 25.2499 28.5134 26.6367C28.2046 27.437 27.871 28.298 27.7722 28.5501C27.5961 28.9991 27.6539 29.0696 30.6298 32.0486L33.6668 35.089V38.5209V41.9528L30.6665 44.9663L27.6662 47.9797L28.2199 49.5158C28.5246 50.3606 29.0617 51.652 29.4137 52.3858L30.0535 53.7197L34.3862 53.7341L38.7188 53.7487L39.6994 54.9064C40.2388 55.5433 41.2743 56.577 42.0006 57.2037L43.3211 58.3431L43.3787 62.6981L43.4363 67.0528L44.5539 67.5766C45.1686 67.8645 46.4283 68.4 47.3534 68.7663L49.0351 69.4323L52.0576 66.413L55.0802 63.3937H58.5258H61.9714L64.9923 66.4113L68.013 69.4289L69.9392 68.6688C70.9984 68.2507 72.2835 67.6983 72.795 67.4411L73.7247 66.9736L73.7321 62.6508L73.7395 58.3279L74.9812 57.2729C75.6641 56.6927 76.6977 55.6592 77.2778 54.9762L78.3328 53.7346L82.6558 53.7272L86.9786 53.7197L87.4819 52.7228C87.7587 52.1743 88.312 50.89 88.7112 49.8686L89.4374 48.0116L86.3643 44.9236L83.2911 41.8355L83.4471 40.1782C83.5473 39.1133 83.5473 37.9284 83.4471 36.8636L83.2911 35.2062L86.3624 32.1201L89.4337 29.0339L88.8349 27.4311C88.5056 26.5495 87.9534 25.2642 87.6078 24.5751L86.9797 23.322H82.649H78.3185L77.6971 22.5073C77.3553 22.0591 76.3217 20.978 75.4003 20.1047L73.7247 18.5169V14.2918V10.0667L72.3099 9.35622C71.5318 8.96541 70.244 8.41599 69.4481 8.13513L68.0013 7.62452L64.9208 10.6879L61.8405 13.7511L60.1831 13.6156C59.2715 13.5412 57.7801 13.5398 56.8685 13.6125C55.4754 13.7238 55.1661 13.7052 54.9282 13.496C54.7727 13.3592 54.6453 13.1789 54.6453 13.0955C54.6453 12.8845 50.3999 8.61131 50.1886 8.60969C50.094 8.60888 49.8077 8.38996 49.552 8.12317C49.2964 7.85638 49.01 7.64085 48.9155 7.64408C48.8209 7.64732 48.0887 7.90505 47.2884 8.21663ZM65.4124 11.5434C64.1955 12.8909 63.2577 14.0507 63.3285 14.1207C63.4928 14.2831 66.9693 15.741 67.0349 15.6752C67.0621 15.6482 66.5814 15.2341 65.9669 14.755C65.3524 14.276 64.8743 13.843 64.9042 13.7928C64.9341 13.7425 65.5826 12.6647 66.3453 11.3974C67.108 10.1301 67.708 9.09331 67.6786 9.09331C67.6492 9.09331 66.6294 10.1959 65.4124 11.5434ZM45.1056 10.4661L44.2163 10.8407V14.4001C44.2163 16.3579 44.2656 18.0089 44.3259 18.069C44.4572 18.2002 48.5819 15.9836 48.5819 15.7821C48.5819 15.434 46.3004 10.0709 46.1565 10.0807C46.0676 10.0867 45.5947 10.2602 45.1056 10.4661ZM141.917 11.3161C142.918 11.3444 144.555 11.3444 145.555 11.3161C146.556 11.2876 145.737 11.2645 143.736 11.2645C141.736 11.2645 140.917 11.2876 141.917 11.3161ZM138.481 11.6757C133.901 11.8501 130.587 12.2163 127.244 12.9173C117.94 14.8679 110.821 18.6026 98.1259 28.1929L95.6059 30.0968L95.4987 38.2298C95.4398 42.703 95.3914 56.2765 95.3913 68.3931L95.3911 90.4234H87.8725H80.354V93.9041V97.3849L78.0499 97.34L75.7458 97.2952L75.7023 93.6167L75.6588 89.9383H64.0202C57.6191 89.9383 52.3816 89.9795 52.3816 90.0298C52.3816 90.0802 53.0843 90.9351 53.943 91.9297C54.8018 92.9242 56.2753 94.643 57.2173 95.7491C58.1593 96.8551 59.4777 98.383 60.1471 99.1446C60.8165 99.906 61.5805 100.791 61.8448 101.111C62.1092 101.431 63.8535 103.462 65.721 105.624C67.5885 107.787 69.3312 109.817 69.5938 110.136C69.8564 110.455 70.5805 111.298 71.203 112.009C71.8253 112.72 72.4316 113.42 72.5502 113.564C72.7358 113.789 72.6795 113.935 72.145 114.615C71.8035 115.049 71.1308 115.914 70.6501 116.536C69.4814 118.049 61.9999 127.662 60.0206 130.193C59.154 131.301 57.9669 132.829 57.3827 133.588C56.4358 134.819 49.3455 143.935 47.566 146.21C47.185 146.697 46.433 147.666 45.8948 148.363L44.9161 149.63L70.1536 149.524L95.3911 149.418V155.371V161.324L93.7742 163.799C92.8849 165.159 92.1573 166.362 92.1573 166.471C92.1573 166.58 92.2555 166.813 92.3756 166.988C92.4956 167.163 93.8235 169.635 95.3264 172.481L98.059 177.655L98.1022 173.382L98.1454 169.109L97.7447 168.691C96.3482 167.233 96.9081 165.124 98.6915 165.124C99.5278 165.124 100.001 165.446 100.243 166.179C100.499 166.955 100.312 167.889 99.7435 168.674L99.2717 169.325L99.272 173.571L99.2723 177.817L99.7786 176.847C100.057 176.313 101.405 173.779 102.774 171.214L105.263 166.552L103.642 163.91L102.02 161.269V132.231V103.194L109.945 103.236L117.87 103.278L117.909 106.38L117.947 109.482L118.422 109.977C118.805 110.377 119.029 110.473 119.58 110.473C120.144 110.473 120.336 110.386 120.681 109.975L121.1 109.478V101.317C121.1 92.2893 121.111 92.3897 120.092 92.0558C119.392 91.8262 118.697 92.0299 118.281 92.5861C117.97 93.0025 117.944 93.279 117.91 96.5388L117.874 100.044L109.947 100.086L102.02 100.128V73.4131V46.6984L102.665 45.3987C103.401 43.9134 105.052 41.6496 106.849 39.6606C114.499 31.1954 125.934 23.6587 138.32 18.9197C141.848 17.5699 146.431 16.137 149.072 15.558C149.561 15.4508 150.253 15.2983 150.608 15.2193C154.65 14.3207 159.679 13.6995 164.394 13.5163C165.929 13.4567 167.155 13.3789 167.12 13.3433C167.03 13.2536 164.411 12.8487 162.088 12.5656C160.081 12.321 158.056 12.1392 154.165 11.8545C151.039 11.6257 142.381 11.5269 138.481 11.6757ZM137.835 12.7567C137.479 12.7852 136.133 12.8851 134.843 12.9789C132.298 13.1639 131.703 13.2542 128.295 13.9726C122.398 15.2157 116.26 17.7085 110.359 21.2574C107.769 22.8153 103.618 25.6638 100.041 28.3388L96.7351 30.8105L96.634 49.1774C96.5784 59.2791 96.4612 83.0422 96.3732 101.984C96.2854 120.926 96.1765 141.87 96.1313 148.526C96.0541 159.911 96.0657 160.62 96.3265 160.515C96.479 160.454 96.8646 160.366 97.1834 160.321L97.7629 160.238L97.8706 130.154C97.9298 113.609 97.983 84.858 97.9892 66.2643L98 32.4575L101.165 29.9513C109.047 23.7109 112.724 21.2026 117.513 18.8005C123.952 15.5708 131.015 13.5786 138.131 12.9849C139.095 12.9045 139.926 12.7963 139.977 12.7446C140.071 12.6513 139.08 12.657 137.835 12.7567ZM148.425 16.3551C146.04 16.9957 144.707 17.4068 144.708 17.5012C144.709 17.5457 145.018 17.7565 145.395 17.9699C146.756 18.7394 150.3 21.114 152.301 22.5967L154.344 24.1106L157.321 23.6275C158.959 23.3616 160.32 23.1228 160.346 23.0968C160.401 23.0415 156.361 19.7944 155.055 18.8445C152.661 17.1039 150.765 15.8851 150.46 15.8917C150.275 15.8959 149.359 16.1045 148.425 16.3551ZM55.4786 18.0794C50.6821 18.778 46.4361 21.134 43.0262 24.9889C40.7273 27.5879 39.3154 30.2458 38.4407 33.6217C38.1113 34.893 38.0727 35.4147 38.0777 38.5209C38.084 42.4339 38.2772 43.5802 39.3816 46.2545C41.4512 51.2664 46.0351 55.7703 51.0973 57.7655C55.1434 59.3605 60.8288 59.4879 65.0424 58.0783C68.2173 57.0163 70.865 55.2925 73.4199 52.6243C77.3022 48.5694 79.0604 44.1734 79.0604 38.5209C79.0604 32.7977 77.1603 28.1391 73.1588 24.0514C68.45 19.2413 62.1383 17.1094 55.4786 18.0794ZM170.011 23.1689C166.682 23.2999 162.613 23.5841 160.956 23.8018C160.334 23.8836 159.315 23.9971 158.693 24.054C158.07 24.1111 156.87 24.2618 156.025 24.3889C155.18 24.5159 153.981 24.6938 153.361 24.784C148.64 25.4709 142.581 26.8918 138.277 28.3218C134.023 29.7353 128.763 32.1736 125.333 34.3224C121.034 37.0157 116.331 41.166 113.848 44.4586C111.088 48.1186 109.277 52.0713 108.471 56.1923C108.1 58.0865 107.898 62.8412 108.111 64.6338L108.245 65.7656L109.151 66.1973C111.551 67.3416 115.276 68.3095 120.049 69.0284C122.72 69.4308 128.669 69.426 131.205 69.0193C135.398 68.3472 138.933 67.1007 142.039 65.1992C144.077 63.952 145.627 62.6879 147.869 60.4423C151.077 57.2308 152.345 55.589 157.809 47.5755C160.189 44.0854 171.492 27.0841 173.289 24.2922C173.604 23.8031 173.932 23.312 174.018 23.2008C174.137 23.0462 174.027 23.0053 173.548 23.0266C173.203 23.042 171.612 23.106 170.011 23.1689ZM79.6936 25.5453C80.5655 26.7133 80.2421 26.6645 82.731 26.0025C83.958 25.6761 85.1076 25.3446 85.2855 25.2659C85.4884 25.176 84.445 25.1184 82.4854 25.1116L79.3618 25.1006L79.6936 25.5453ZM169.203 26.1796C169.025 26.2189 168.006 26.4342 166.939 26.658C162.676 27.5526 156.012 29.2017 152.063 30.3392C135.263 35.1789 127.569 38.9838 120.318 46.0374C114.688 51.514 111.477 57.0239 110.83 62.3178L110.717 63.2354L111.341 63.5515C113.51 64.6508 118.929 65.9299 123.186 66.3474C126.107 66.6338 129.689 66.2505 133.227 65.2731C139.288 63.5985 145.583 59.3559 150.132 53.8805C151.728 51.9593 153.315 49.8346 156.553 45.2832C159.161 41.6176 160.24 40.0778 164.469 33.9936C167.177 30.0973 169.768 26.2709 169.768 26.1679C169.768 26.0651 169.717 26.0662 169.203 26.1796ZM29.1886 28.1545C29.0499 28.4224 28.9366 28.7372 28.9366 28.8538C28.9366 28.9703 30.0915 30.2191 31.5032 31.6287L34.0699 34.1916L34.6428 32.4806L35.2158 30.7696L34.7036 30.4618C34.2553 30.1922 29.8669 27.8524 29.5573 27.7177C29.4931 27.6899 29.3272 27.8864 29.1886 28.1545ZM25.6412 32.0182C11.6569 47.5453 3.28785 66.3941 1.0368 87.4321C0.688033 90.6914 0.542028 100.061 0.786018 103.538C1.69391 116.481 4.78283 128.117 10.3359 139.513C15.0049 149.094 20.6879 157.205 28.0083 164.733C42.9963 180.148 62.4019 190.104 83.4261 193.164C102.349 195.919 121.477 193.142 138.585 185.155C164.746 172.942 184.297 149.516 191.514 121.736C192.84 116.631 193.727 111.59 194.292 105.946C194.691 101.96 194.691 92.3066 194.292 88.3214C193.498 80.3937 192.088 73.6587 189.737 66.5741C185.591 54.0785 179.431 43.31 170.612 33.1392L169.24 31.5574L167.973 33.6168C166.891 35.3759 166.737 35.7128 166.919 35.9264C171.117 40.8423 174.021 44.8066 176.756 49.3541C184.011 61.4176 188.276 74.4329 189.685 88.8065C189.97 91.7167 189.974 102.713 189.69 105.461C188.46 117.387 185.717 127.235 180.818 137.313C178.292 142.51 176.098 146.248 173.057 150.531C159.78 169.237 140.219 182.284 117.852 187.354C108.234 189.534 96.9102 190.127 87.0641 188.965C72.4617 187.242 59.2018 182.453 47.1267 174.54C27.4906 161.672 13.5733 142.109 7.93174 119.447C4.52234 105.75 4.32476 90.9335 7.36793 77.1648C10.8276 61.5117 18.6358 46.4586 29.2721 34.9365C30.0658 34.0767 30.7151 33.325 30.7151 33.266C30.7151 33.1099 27.7711 29.9513 27.6256 29.9513C27.558 29.9513 26.665 30.8814 25.6412 32.0182ZM57.1515 31.0894C54.7757 31.5765 52.8972 33.0076 51.8278 35.1451C49.6366 39.5253 52.0165 44.6378 56.8216 45.8726C60.7292 46.8769 64.8327 44.3854 65.8774 40.3747C67.2525 35.0948 62.4647 30.0003 57.1515 31.0894ZM131.038 31.7496C118.176 38.4077 111.046 46.2042 108.96 55.8927C108.409 58.4539 108.135 64.0734 108.563 64.0643C108.655 64.0624 109.037 63.9216 109.412 63.7513L110.094 63.4418L110.001 61.6125C109.908 59.7724 110.13 57.5513 110.67 54.9217C111.21 52.2868 112.848 48.3304 114.388 45.9381C116.334 42.9156 120.181 38.9987 123.768 36.3884C125.848 34.874 128.94 32.9922 131.304 31.802C131.917 31.4934 132.418 31.2054 132.418 31.1619C132.418 31.0372 132.394 31.0476 131.038 31.7496ZM31.9682 48.195C30.4788 49.0511 29.2616 49.8259 29.2635 49.9166C29.2654 50.0075 29.403 50.2586 29.5693 50.4748L29.8714 50.868L31.9506 50.2505C33.0941 49.911 34.4828 49.4953 35.0365 49.3266L36.043 49.0202L35.4455 47.8127C35.117 47.1487 34.8096 46.6128 34.7624 46.6217C34.7152 46.6308 33.4577 47.3386 31.9682 48.195ZM81.371 48.0202C81.3134 48.1757 80.9165 49.1349 80.489 50.1512C80.0613 51.1678 79.7454 52.0333 79.7869 52.0747C79.8671 52.1549 85.7318 53.0602 86.2238 53.0681C86.5506 53.0736 87.5333 51.1755 87.4407 50.7176C87.4077 50.554 86.2875 49.9388 84.4872 49.0956C82.8922 48.3486 81.5619 47.7372 81.5314 47.7372C81.5007 47.7372 81.4286 47.8646 81.371 48.0202ZM44.9439 59.574C45.0061 59.6395 47.8857 62.017 48.1536 62.2243C48.1848 62.2484 47.8373 63.3382 47.3813 64.6459C46.9254 65.9537 46.5755 67.047 46.6039 67.0755C46.6326 67.104 47.3344 66.1519 48.1638 64.9599L49.6718 62.7928L50.582 62.6927C51.0827 62.6377 51.6013 62.5781 51.7345 62.5601C51.8677 62.5422 50.5217 61.8961 48.7433 61.1245C45.3774 59.6639 44.8087 59.4319 44.9439 59.574ZM65.9163 62.2025C64.7787 62.5829 63.8485 62.9424 63.8491 63.0012C63.8499 63.0601 64.9625 64.2978 66.3219 65.7521L68.7931 68.3959L69.7633 67.9105C70.2968 67.6435 70.7617 67.3994 70.7963 67.3678C70.8311 67.3363 70.3266 65.9988 69.6753 64.3956C68.8289 62.3119 68.419 61.4851 68.2379 61.4957C68.0987 61.504 67.0538 61.822 65.9163 62.2025ZM123.972 92.5121L123.444 92.9839V101.419V109.854L123.898 110.244C124.384 110.663 125.245 110.764 125.798 110.468C126.493 110.096 126.597 109.54 126.597 106.196V103.035H132.339H138.081L138.039 108.948L137.996 114.86L134.197 116.534C130.205 118.291 129.346 118.833 129.346 119.594C129.346 120.154 129.738 120.91 130.108 121.064C130.267 121.13 132.212 121.79 134.43 122.531C137.824 123.664 138.401 123.901 138.068 124.024C137.851 124.105 136.041 124.706 134.046 125.359C131.956 126.043 130.244 126.697 130.007 126.901C129.688 127.175 129.596 127.407 129.596 127.935C129.596 129.047 130.023 129.295 134.317 130.684C136.38 131.351 138.069 131.943 138.072 131.999C138.075 132.056 137.913 132.139 137.713 132.184C137.269 132.284 131.556 134.286 130.733 134.63C129.694 135.064 129.411 136.399 130.209 137.11C130.673 137.525 130.877 137.596 136.662 139.341L137.592 139.621V143.537V147.453L137.989 147.881L138.385 148.308H151.064H163.742L164.166 147.884L164.59 147.46L164.633 142.447L164.675 137.433L166.162 137.058C168.123 136.564 169.095 136.144 170.666 135.116C173.183 133.468 175.219 130.856 176.136 128.097C176.652 126.547 176.802 125.601 176.802 123.893C176.802 122.044 176.635 120.995 176.089 119.41C174.463 114.692 170.309 111.255 165.198 110.398L164.59 110.296L164.699 105.049L164.808 99.8014H145.712H126.615L126.566 96.3923L126.516 92.9832L125.988 92.5117C125.296 91.8938 124.664 91.8938 123.972 92.5121ZM59.3343 93.2691C59.3343 93.3642 61.3428 95.7641 62.6413 97.2208C63.0012 97.6245 63.805 98.5633 64.4275 99.3069C65.05 100.051 65.673 100.775 65.8117 100.917C66.113 101.226 70.6521 106.501 71.461 107.483C72.3492 108.561 73.6269 110.053 73.8147 110.23C73.9088 110.319 74.622 111.134 75.3998 112.04L76.8139 113.687L76.2799 114.408C75.9861 114.804 73.854 117.551 71.5419 120.514C69.2297 123.476 66.9426 126.412 66.4595 127.039C65.9763 127.665 63.9083 130.324 61.8637 132.948C59.8193 135.571 57.6705 138.336 57.0886 139.092C56.132 140.335 54.0755 142.969 52.1336 145.438L51.4024 146.368H65.8517C73.7987 146.368 83.6961 146.32 87.846 146.261L95.3911 146.154V119.905V93.6572H89.4086H83.4261V97.0526V100.448H78.0095H72.5928V96.8101V93.1721H65.9636C62.3174 93.1721 59.3343 93.2157 59.3343 93.2691ZM142.731 102.993L141.321 103.048L141.276 109.739C141.23 116.42 141.23 116.43 140.867 116.816C140.668 117.028 139.376 117.699 137.997 118.307C136.618 118.914 135.492 119.456 135.495 119.51C135.498 119.564 137.507 120.263 139.961 121.064C144.812 122.646 145.03 122.767 145.03 123.876C145.03 124.932 144.668 125.141 140.412 126.542C138.283 127.243 136.487 127.865 136.421 127.923C136.355 127.982 137.701 128.492 139.412 129.056C144.044 130.582 144.192 130.644 144.466 131.174C144.823 131.863 144.76 132.401 144.262 132.925C143.919 133.285 143.13 133.627 140.826 134.414C139.181 134.976 137.515 135.557 137.124 135.705L136.413 135.975L138.308 136.572C140.769 137.347 140.664 137.117 140.664 141.755V145.236H151.093H161.522V141.304V137.373L160.431 137.162C155.464 136.203 151.414 132.544 149.859 127.612C149.519 126.534 149.478 126.103 149.486 123.731C149.495 121.257 149.528 120.97 149.94 119.77C151.623 114.875 155.602 111.362 160.457 110.485C160.983 110.39 161.431 110.294 161.453 110.271C161.475 110.249 161.515 108.593 161.542 106.592L161.59 102.954L152.865 102.946C148.067 102.942 143.506 102.963 142.731 102.993ZM160.229 113.767C158.443 114.292 157.07 115.095 155.667 116.431C154.611 117.437 154.296 117.869 153.609 119.26C152.662 121.178 152.373 122.613 152.529 124.621C152.734 127.263 153.567 129.041 155.534 131.029C157.688 133.206 160.12 134.244 163.055 134.239C167.128 134.231 170.682 132.104 172.503 128.582C173.338 126.968 173.649 125.663 173.649 123.767C173.649 119.303 170.887 115.491 166.554 113.974C165.36 113.556 164.894 113.481 163.301 113.448C161.779 113.417 161.221 113.475 160.229 113.767ZM158.092 122.258C156.703 122.815 154.872 124.38 154.681 125.172C154.56 125.671 154.932 126.565 155.354 126.791C155.533 126.887 155.962 126.965 156.307 126.965C156.799 126.965 157.037 126.857 157.409 126.464C158.065 125.772 159.403 125.028 159.986 125.03C160.757 125.033 161.679 125.545 162.882 126.638C164.311 127.936 165.132 128.306 166.568 128.297C168.461 128.285 170.276 127.157 172.078 124.873C173.164 123.496 172.058 121.728 170.46 122.285C170.209 122.372 169.641 122.87 169.199 123.39C167.874 124.947 166.755 125.484 165.837 125.001C165.643 124.899 165.035 124.398 164.487 123.888C163.026 122.528 161.937 122.044 160.229 121.993C159.185 121.962 158.671 122.026 158.092 122.258Z" fill="#E4D3FF"/>
</svg>
